<svg width="134" height="37" fill="none" xmlns="http://www.w3.org/2000/svg"><rect width="133.01" height="37" rx="4" fill="#756257"/><path d="M29.74 15.75h-3.92V25h-2.19V13.8h8.3V25h-2.19v-9.25Zm3.76 3.65c0-1.87.4-3.3 1.23-4.3.82-1.02 2-1.52 3.52-1.52.8 0 1.5.13 2.1.41.6.28 1.09.67 1.48 1.19.4.5.7 1.12.88 1.84.2.71.3 1.5.3 2.38 0 1.87-.42 3.3-1.26 4.32-.82 1-1.99 1.5-3.5 1.5-.81 0-1.52-.13-2.11-.41-.6-.28-1.1-.67-1.5-1.19a5.34 5.34 0 0 1-.85-1.84c-.2-.71-.3-1.5-.3-2.38Zm2.3 0a8 8 0 0 0 .15 1.57c.1.47.24.87.43 1.21a2.05 2.05 0 0 0 1.87 1.09c.78 0 1.38-.3 1.8-.91.43-.6.65-1.6.65-2.96 0-.54-.05-1.05-.15-1.52a4.08 4.08 0 0 0-.41-1.23 2.03 2.03 0 0 0-1.89-1.12c-.78 0-1.38.31-1.8.94-.44.62-.65 1.6-.65 2.93ZM54.1 27h-1.56l-.24-2h-7.2l-.24 2h-1.55v-3.95h1.18a11.06 11.06 0 0 0 .88-2.5c.18-.74.32-1.67.44-2.78.11-1.12.17-2.44.16-3.97h6.7v9.25h1.42V27Zm-3.62-3.95v-7.3H48c-.06 1.9-.22 3.46-.47 4.67-.23 1.2-.47 2.08-.72 2.63h3.67Zm4.85-9.14a16.56 16.56 0 0 1 3.09-.27c.56 0 1.11.05 1.67.14.56.09 1.07.27 1.52.55.44.26.8.64 1.08 1.13.3.48.44 1.11.44 1.9 0 .7-.13 1.3-.37 1.78-.25.48-.57.88-.98 1.19-.4.3-.87.53-1.4.67a6.1 6.1 0 0 1-1.6.2h-.61l-.39-.02a2.7 2.7 0 0 1-.25-.04V25h-2.2V13.91Zm3.27 1.62a5.52 5.52 0 0 0-1.07.08v3.63l.19.03.27.03H58.46c.3 0 .58-.02.86-.08.29-.05.54-.15.77-.28.22-.15.4-.36.52-.61.14-.26.21-.6.21-1.01 0-.35-.06-.64-.2-.86-.12-.24-.29-.43-.5-.56-.2-.14-.44-.24-.7-.3a4.15 4.15 0 0 0-.82-.07Zm5.37 3.87c0-1.87.4-3.3 1.23-4.3.82-1.02 2-1.52 3.52-1.52.8 0 1.5.13 2.1.41.6.28 1.09.67 1.48 1.19.4.5.69 1.12.88 1.84.2.71.29 1.5.29 2.38 0 1.87-.42 3.3-1.25 4.32-.82 1-1.99 1.5-3.5 1.5-.81 0-1.52-.13-2.11-.41-.6-.28-1.1-.67-1.5-1.19a5.34 5.34 0 0 1-.86-1.84c-.19-.71-.28-1.5-.28-2.38Zm2.3 0a8 8 0 0 0 .14 1.57c.1.47.24.87.44 1.21a2.05 2.05 0 0 0 1.87 1.09c.78 0 1.38-.3 1.8-.91.43-.6.65-1.6.65-2.96 0-.54-.05-1.05-.15-1.52a4.08 4.08 0 0 0-.41-1.23c-.2-.35-.45-.63-.76-.82-.3-.2-.68-.3-1.13-.3-.78 0-1.38.31-1.81.94-.43.62-.64 1.6-.64 2.93Zm8.77-5.6h6.9v1.95h-4.71v2.34a13.45 13.45 0 0 1 1.44-.15c.6 0 1.15.06 1.65.18s.92.31 1.28.6c.36.26.64.62.84 1.06.2.44.3.98.3 1.62 0 .63-.1 1.18-.31 1.65-.2.47-.5.86-.9 1.17-.38.3-.85.54-1.4.7-.55.16-1.16.24-1.85.24a18.45 18.45 0 0 1-1.55-.06l-.9-.08c-.3-.04-.56-.08-.8-.13V13.8Zm3.4 9.55c.28 0 .54-.03.77-.1a2 2 0 0 0 .64-.31c.18-.15.33-.34.43-.56.11-.23.16-.5.16-.82 0-.38-.05-.7-.17-.93a1.33 1.33 0 0 0-.48-.54 1.7 1.7 0 0 0-.7-.27 5.06 5.06 0 0 0-1.86.04v3.41c.12.03.3.06.53.07l.68.01Zm12.01-3.04h-4.1V25h-2.19V13.8h2.2v4.56h4.09V13.8h2.2V25h-2.2v-4.69Zm4.13-6.51h6.64v1.95h-4.44v2.61h4.04v1.95h-4.04v2.74h4.52V25h-6.72V13.8Zm8.36 0h6.64v1.95h-4.44v2.61h4.04v1.95h-4.05v2.74h4.53V25h-6.72V13.8Z" fill="#fff"/></svg>