<svg width="620" height="60" fill="none" xmlns="http://www.w3.org/2000/svg"><rect width="619.83" height="60" rx="4" fill="#83B3D3"/><path d="M240.15 30.8v-2.14h1.44l.54-.04.42-.08c.46-.1.86-.3 1.2-.56.33-.28.5-.65.5-1.12 0-.64-.21-1.07-.62-1.3a3.1 3.1 0 0 0-1.6-.36 6.57 6.57 0 0 0-2.86.7l-.7-2.32c.14-.08.35-.17.62-.26.28-.1.59-.18.94-.26a9.41 9.41 0 0 1 4.14-.14c.56.1 1.06.3 1.5.56.44.27.79.63 1.06 1.08.26.44.4 1 .4 1.7s-.2 1.33-.56 1.92a3.1 3.1 0 0 1-1.76 1.28v.1a3.4 3.4 0 0 1 2.02 1.12c.49.57.74 1.34.74 2.3 0 .76-.16 1.41-.46 1.96a4 4 0 0 1-1.22 1.32c-.5.35-1.07.6-1.72.76-.66.17-1.32.26-2 .26-.88 0-1.68-.07-2.4-.22a6.6 6.6 0 0 1-1.66-.52l.7-2.38c.3.15.74.3 1.32.46a8.3 8.3 0 0 0 2.04.22c.29 0 .58-.03.88-.1.3-.08.58-.2.82-.36.24-.17.43-.4.58-.66.14-.27.22-.59.22-.96 0-.63-.24-1.1-.7-1.42-.47-.32-1.3-.5-2.5-.52a4.76 4.76 0 0 0-.36-.02h-.96Zm16.22 3.1h-4.3l-1.06 3.1h-2.74l5.04-14.1h2.02l5.04 14.1h-2.88l-1.12-3.1Zm-3.6-2.2h3l-1.04-3.12-.42-2.2h-.1l-.42 2.22-1.02 3.1Zm16.95-6.26h-5.4V37h-2.74V23h8.14v2.44Zm1.02-2.3c.56-.1 1.18-.19 1.84-.24.68-.07 1.36-.1 2.02-.1.7 0 1.39.06 2.08.18.7.1 1.34.33 1.9.68.56.33 1.02.8 1.36 1.42.36.6.54 1.39.54 2.36a4.3 4.3 0 0 1-1.68 3.72c-.5.39-1.08.67-1.74.84-.64.17-1.3.26-2 .26h-.78l-.48-.04a3.33 3.33 0 0 1-.32-.04V37h-2.74V23.14Zm4.08 2.02c-.26 0-.52.01-.76.04-.24.01-.43.03-.58.06v4.54l.24.04.34.04H274.66c.36 0 .72-.03 1.06-.1.36-.07.68-.19.96-.36.28-.19.5-.44.66-.76.18-.32.26-.74.26-1.26 0-.44-.08-.8-.24-1.08-.16-.3-.37-.53-.64-.7-.25-.17-.54-.3-.88-.36a5.2 5.2 0 0 0-1.02-.1Zm11.62 4.02.4 1.82h.12l.32-1.88 2.1-6.12h2.82l-3.72 9.68c-.3.76-.58 1.42-.86 1.98a6.29 6.29 0 0 1-.88 1.4c-.3.36-.66.63-1.04.82a3.3 3.3 0 0 1-1.36.26c-.44 0-.8-.03-1.08-.1a2.7 2.7 0 0 1-.88-.38l.7-2.22c.23.12.43.2.62.22.19.03.38.04.6.04.63 0 1.06-.5 1.32-1.48L280.38 23h3.22l2.84 6.18Zm7.88 1.62v-2.14h1.44l.55-.04.42-.08c.46-.1.86-.3 1.2-.56.33-.28.5-.65.5-1.12 0-.64-.21-1.07-.63-1.3a3.1 3.1 0 0 0-1.6-.36 6.6 6.6 0 0 0-2.86.7l-.7-2.32c.15-.08.36-.17.63-.26a10.4 10.4 0 0 1 2.1-.48 9.86 9.86 0 0 1 2.98.08c.55.1 1.05.3 1.5.56.44.27.79.63 1.05 1.08.27.44.4 1 .4 1.7s-.18 1.33-.56 1.92a3.09 3.09 0 0 1-1.75 1.28v.1a3.4 3.4 0 0 1 2.01 1.12c.5.57.75 1.34.75 2.3 0 .76-.16 1.41-.46 1.96-.31.53-.72.97-1.23 1.32-.49.35-1.06.6-1.71.76-.66.17-1.33.26-2 .26-.89 0-1.69-.07-2.4-.22a6.62 6.62 0 0 1-1.66-.52l.7-2.38c.3.15.74.3 1.31.46.58.15 1.26.22 2.05.22.29 0 .58-.03.88-.1.3-.08.57-.2.81-.36.25-.17.44-.4.58-.66.15-.27.23-.59.23-.96 0-.63-.24-1.1-.7-1.42-.47-.32-1.3-.5-2.5-.52a4.76 4.76 0 0 0-.36-.02h-.97Zm17.5-1.56.15-1.82h-.1l-.94 1.88-5.22 7.7h-2.06V23h2.74v7.62l-.2 1.88h.12l.98-1.94 5.22-7.56h2.04v14h-2.74v-7.76Zm15.1-3.8h-4.09V37h-2.74V25.44H316V23h10.92v2.44Zm1.42-2.44h2.74v5.02l.32-.04c.16-.03.33-.05.5-.06l.56-.04.52-.02c.65 0 1.29.07 1.9.2.61.13 1.15.37 1.62.72.48.33.86.8 1.14 1.38.28.57.42 1.3.42 2.2 0 1.6-.5 2.8-1.5 3.62-.99.81-2.4 1.22-4.26 1.22-.19 0-.44 0-.76-.02a36.3 36.3 0 0 1-2.16-.14c-.37-.04-.72-.1-1.04-.18V23Zm4.1 11.76c.37 0 .73-.03 1.06-.1.33-.08.63-.2.88-.38.25-.19.45-.43.58-.72.15-.3.22-.65.22-1.08 0-.45-.08-.82-.24-1.1-.15-.3-.35-.52-.6-.68a2.14 2.14 0 0 0-.86-.32 6.58 6.58 0 0 0-1.38-.06l-.4.04c-.13.01-.26.03-.38.06l-.24.04v4.18c.15.04.34.07.58.1l.78.02ZM344.16 23h8.3v2.44h-5.56v3.26h5.06v2.44h-5.06v3.42h5.66V37h-8.4V23Zm10.45 14V23h2.74v11.56h3.3V23h2.74v11.56h3.3V23h2.74v11.56h1.84v4.94h-1.92l-.3-2.5h-14.44Zm18.22-14h8.3v2.44h-5.56v3.26h5.06v2.44h-5.06v3.42h5.66V37h-8.4V23Zm.44-1.96c0-.35.12-.63.36-.84.24-.21.63-.32 1.16-.32.52 0 .9.1 1.14.32.24.21.36.5.36.84 0 .35-.12.63-.36.84-.24.2-.62.3-1.14.3-.53 0-.92-.1-1.16-.3-.24-.21-.36-.5-.36-.84Zm4.28 0c0-.35.12-.63.36-.84.24-.21.62-.32 1.14-.32.54 0 .92.1 1.16.32.24.21.36.5.36.84 0 .35-.12.63-.36.84-.24.2-.62.3-1.16.3-.52 0-.9-.1-1.14-.3-.24-.21-.36-.5-.36-.84Z" fill="#fff"/></svg>