<svg width="141" height="37" fill="none" xmlns="http://www.w3.org/2000/svg"><rect x=".1" width="140.9" height="37" rx="4" fill="#7DB54F"/><path d="M27.2 16.4a3.2 3.2 0 0 1-.5 1.6l-.6.6c-.2.2-.5.3-1 .4v.1c.4 0 .7.1 1 .3a2.3 2.3 0 0 1 1.2 1.3c.2.3.2.7.2 1.1 0 .6 0 1.1-.3 1.6a3 3 0 0 1-1 1l-1.4.6-1.6.2h-.7a14.3 14.3 0 0 1-2.8-.3V14a21.7 21.7 0 0 1 4.9-.1c.5 0 1 .2 1.3.4l1 .8c.2.4.3.9.3 1.4Zm-4 7 .8-.1.6-.3.5-.5.2-.8-.2-.8-.6-.5-.7-.2h-2v3l.2.1a49 49 0 0 0 .8 0h.4Zm-.7-4.9a9.3 9.3 0 0 0 1 0l1-.6c.3-.3.5-.6.5-1 0-.3 0-.6-.2-.7l-.4-.5-.6-.2H23a17 17 0 0 0-1.3 0v3h.7Zm17.2.3.1-1.5-.8 1.5-4.2 6.2h-1.6V13.8h2.1v6.1l-.1 1.5.9-1.6 4.1-6H42V25h-2.2v-6.2Zm5 1.2v-1.7H46a79.9 79.9 0 0 0 .8 0l1-.5c.2-.2.4-.5.4-1 0-.4-.2-.8-.5-1l-1.3-.2c-.5 0-1 0-1.4.2-.4 0-.7.2-1 .3l-.5-1.8.5-.2a8.3 8.3 0 0 1 2.7-.5l1.4.1 1.2.5.8.8c.2.4.4.9.4 1.4 0 .6-.2 1-.5 1.5s-.8.9-1.4 1v.1c.7.2 1.2.5 1.6 1 .4.4.6 1 .6 1.8 0 .6-.1 1.1-.4 1.6-.2.4-.5.7-1 1a4 4 0 0 1-1.3.6c-.5.2-1 .2-1.6.2-.7 0-1.4 0-2-.2-.5 0-1-.2-1.3-.4l.6-1.9 1 .4a6.6 6.6 0 0 0 2.4 0c.2 0 .5 0 .6-.2l.5-.5.2-.8c0-.5-.2-.9-.6-1.1-.3-.3-1-.4-2-.4h-1Zm7.5-6.2h7v2h-4.8V18a13.5 13.5 0 0 1 1.5-.2l1.6.2c.5.1 1 .3 1.3.6.4.3.6.6.8 1 .2.5.3 1 .3 1.7a4 4 0 0 1-.3 1.6 3 3 0 0 1-.9 1.2 4 4 0 0 1-1.4.7 6.5 6.5 0 0 1-2.5.2 30.3 30.3 0 0 1-2.6-.2V13.8Zm3.4 9.6.8-.1c.3-.1.5-.2.6-.4l.5-.5.1-.8-.1-1-.5-.5c-.2-.2-.5-.2-.7-.3a5 5 0 0 0-1.9 0v3.5h1.2Zm5.8-9.5a13.8 13.8 0 0 1 3-.3c.6 0 1.2 0 1.7.2.6 0 1 .3 1.5.5.5.3.8.7 1.1 1.2.3.4.4 1 .4 1.9a3.4 3.4 0 0 1-1.3 3 4 4 0 0 1-1.4.6 6 6 0 0 1-1.6.2h-1.3V25h-2.1V14Zm3.2 1.6a5.5 5.5 0 0 0-1 .1v3.6h.1l.3.1h1.3l.8-.4c.2-.1.4-.3.5-.6.2-.2.2-.6.2-1l-.1-.8c-.2-.3-.3-.5-.6-.6l-.7-.3h-.8Zm10.2 7h-3.4l-.9 2.5h-2.2l4-11.3H74L78 25h-2.3l-.9-2.5Zm-2.9-1.7h2.4l-.8-2.5-.3-1.8H73l-.4 1.8-.8 2.5Zm13.4-.5h-4.1V25H79V13.8h2.2v4.6h4v-4.6h2.2V25h-2.1v-4.7Zm10.4 0h-4.1V25h-2.2V13.8h2.2v4.6h4v-4.6H98V25h-2.2v-4.7Zm3.8-.9c0-1.9.4-3.3 1.2-4.3.8-1 2-1.5 3.5-1.5a5 5 0 0 1 2.1.4c.6.3 1.1.7 1.5 1.2.4.5.7 1.1.9 1.8.2.7.3 1.5.3 2.4 0 1.9-.5 3.3-1.3 4.3s-2 1.5-3.5 1.5a5 5 0 0 1-2.1-.4 4 4 0 0 1-1.5-1.2c-.4-.5-.7-1.1-.9-1.8l-.2-2.4Zm2.3 0 .1 1.6.4 1.2.8.8c.3.2.7.3 1.1.3a2 2 0 0 0 1.8-1c.4-.5.7-1.5.7-2.9 0-.5 0-1-.2-1.5a4 4 0 0 0-.4-1.3c-.2-.3-.4-.6-.8-.8a2 2 0 0 0-1-.3 2 2 0 0 0-1.9 1c-.4.6-.6 1.6-.6 2.9Zm17.4-.2.3-2.2h-.1l-.7 1.8-2.4 4.1h-.7l-2.5-4.2-.7-1.7h-.1l.3 2.2V25h-2V13.8h2l3 5.1.4 1.3h.1l.5-1.3 2.8-5.1h2V25h-2.2v-5.8Z" fill="#fff"/></svg>