<svg width="10" height="8" viewBox="0 0 10 8" fill="none" xmlns="http://www.w3.org/2000/svg">
<path d="M1.13089 6.76H2.53089V1.92L2.63089 1.33L2.23089 1.8L1.13089 2.59L0.750889 2.08L2.95089 0.38H3.31089V6.76H4.68089V7.5H1.13089V6.76ZM8.96011 2.09C8.96011 2.44333 8.89344 2.80667 8.76011 3.18C8.63344 3.54667 8.46344 3.91667 8.25011 4.29C8.04344 4.66333 7.81011 5.03 7.55011 5.39C7.29011 5.74333 7.03011 6.08 6.77011 6.4L6.28011 6.83V6.87L6.92011 6.76H9.10011V7.5H5.12011V7.21C5.26677 7.05667 5.44344 6.86667 5.65011 6.64C5.85677 6.41333 6.07011 6.16333 6.29011 5.89C6.51677 5.61 6.73677 5.31667 6.95011 5.01C7.17011 4.69667 7.36677 4.38 7.54011 4.06C7.72011 3.74 7.86344 3.42333 7.97011 3.11C8.07677 2.79667 8.13011 2.5 8.13011 2.22C8.13011 1.89333 8.03677 1.62333 7.85011 1.41C7.66344 1.19 7.38011 1.08 7.00011 1.08C6.74677 1.08 6.50011 1.13333 6.26011 1.24C6.02011 1.34 5.81344 1.45667 5.64011 1.59L5.31011 1.02C5.54344 0.82 5.82011 0.663333 6.14011 0.549999C6.46011 0.436666 6.80344 0.38 7.17011 0.38C7.45677 0.38 7.71011 0.423333 7.93011 0.509999C8.15011 0.59 8.33677 0.706666 8.49011 0.86C8.64344 1.01333 8.76011 1.19667 8.84011 1.41C8.92011 1.61667 8.96011 1.84333 8.96011 2.09Z" fill="white"/>
</svg>
