<svg width="200" height="61" fill="none" xmlns="http://www.w3.org/2000/svg"><path d="M0 0h190a10 10 0 0 1 10 10v40a10 10 0 0 1-10 10H0V0Z" fill="#83B3D3"/><path d="M42.9 26.4h-5V38h-2.7V24h10.4v14H43V26.4Zm4.7 4.6c0-2.3.5-4.1 1.5-5.4 1-1.2 2.5-1.9 4.4-1.9 1 0 1.9.2 2.6.5a5 5 0 0 1 1.9 1.5c.5.7.8 1.4 1 2.3.3 1 .4 2 .4 3 0 2.3-.5 4.1-1.5 5.4a5.3 5.3 0 0 1-4.4 1.9c-1 0-1.9-.2-2.6-.5a5 5 0 0 1-1.9-1.5c-.5-.7-.8-1.4-1-2.3-.3-1-.4-2-.4-3Zm2.8 0 .2 2 .6 1.5c.2.4.5.7 1 1 .3.2.8.3 1.3.3 1 0 1.7-.3 2.3-1.1.5-.8.8-2 .8-3.7 0-.7 0-1.3-.2-1.9l-.5-1.5c-.3-.5-.6-.8-1-1-.4-.3-.8-.4-1.4-.4-1 0-1.7.4-2.3 1.1-.5.8-.8 2-.8 3.7Zm23 9.5h-2L71 38h-9l-.3 2.5h-2v-5h1.5l.5-1 .6-2a30.3 30.3 0 0 0 .8-8.5h8.3v11.6h1.8v4.9Zm-4.6-5v-9h-3.1a36.7 36.7 0 0 1-1.5 9h4.6Zm13.7-9h-4.9V38h-2.7V24h10.3v14h-2.7V26.4Zm13.3 3.7.2-1.8h-.1l-1 1.9-5.2 7.7h-2V24h2.7v7.6l-.2 1.9h.1l1-2 5.2-7.5h2v14h-2.7v-7.8Zm14.6 7.2c-.4.3-1 .5-1.6.7l-2 .2c-.9 0-1.7-.1-2.4-.4-.8-.3-1.4-.7-2-1.3-.6-.5-1-1.3-1.4-2.2-.3-1-.5-2-.5-3.4s.2-2.5.6-3.4c.4-1 .9-1.7 1.5-2.3.6-.6 1.2-1 2-1.2a7 7 0 0 1 2.2-.4 10.8 10.8 0 0 1 3.4.6l-.5 2.3a4 4 0 0 0-1.1-.3l-1.5-.1c-1.1 0-2 .4-2.7 1.1-.7.8-1 2-1 3.7 0 .7 0 1.4.2 2 .2.6.4 1 .8 1.5.3.4.7.7 1.2 1a5.5 5.5 0 0 0 3.2.2l1-.5.6 2.2Zm7.7-2.5h-4.3l-1 3.1H110l5-14.1h2.1l5 14.1h-2.8l-1.2-3.1Zm-3.6-2.2h3l-1-3.1-.4-2.2h-.1l-.4 2.2-1 3.1Zm17.2-6.3h-4V38h-2.8V26.4h-4V24h10.8v2.4Zm1.5-2.4h2.7v5h.8l.6-.1h.5a9 9 0 0 1 1.9.2c.6 0 1.2.3 1.6.7.5.3.9.8 1.2 1.4.2.5.4 1.3.4 2.2 0 1.6-.5 2.8-1.5 3.6-1 .8-2.4 1.2-4.3 1.2a19.3 19.3 0 0 1-2.9-.2l-1-.1V24Zm4 11.8 1.1-.1.9-.4c.3-.2.5-.4.6-.7l.2-1.1c0-.5 0-.8-.2-1.1l-.6-.7-.9-.3a6.6 6.6 0 0 0-1.4 0h-1v4.2l.6.1h.8Zm16.7 1.6-1.7.7-2 .2c-.8 0-1.6-.1-2.4-.4-.7-.3-1.4-.7-2-1.3-.5-.5-1-1.3-1.3-2.2-.4-1-.5-2-.5-3.4s.1-2.5.5-3.4c.4-1 .9-1.7 1.5-2.3.6-.6 1.3-1 2-1.2a7 7 0 0 1 2.3-.4 10.8 10.8 0 0 1 3.4.6l-.6 2.3a4 4 0 0 0-1-.3l-1.6-.1c-1 0-2 .4-2.7 1.1-.6.8-1 2-1 3.7 0 .7.1 1.4.3 2 .1.6.4 1 .7 1.5.3.4.7.7 1.2 1a5.5 5.5 0 0 0 3.2.2l1.1-.5.6 2.2Zm10.8.6H162v-5.5l-1.4.3-3 5.2h-3.1l2.8-4.7 1.2-.8-1.2-.5a3.8 3.8 0 0 1-1.6-2c-.2-.6-.2-1.1-.2-1.7 0-.8.1-1.5.4-2.1.3-.6.7-1 1.2-1.4a5 5 0 0 1 1.9-.8 10.8 10.8 0 0 1 3.1-.2 21.6 21.6 0 0 1 2.6.3V38ZM161 26.2a5 5 0 0 0-1 .1l-.9.4-.6.6-.2 1.1.2 1a2 2 0 0 0 1.4 1.2h2.1v-4.3h-1Z" fill="#fff"/></svg>