<svg width="600" height="60" fill="none" xmlns="http://www.w3.org/2000/svg"><path d="M600 0H10A10 10 0 0 0 0 10v40a10 10 0 0 0 10 10h590V0Z" fill="#F2F2F2"/><path opacity=".6" d="M31.13 27.28a3.11 3.11 0 0 1-.58 1.8c-.2.26-.44.5-.74.7-.3.2-.65.36-1.06.47v.07c.36.06.7.16 1.03.3a2.79 2.79 0 0 1 1.49 1.52c.16.36.23.79.23 1.28a3.34 3.34 0 0 1-1.47 2.84c-.43.3-.93.52-1.5.67-.56.14-1.14.21-1.72.21h-.72c-.28 0-.57 0-.87-.03a11.36 11.36 0 0 1-1.69-.2v-12.4a19.92 19.92 0 0 1 3.47-.25c.47 0 .95.04 1.43.12.49.07.93.22 1.33.45a2.64 2.64 0 0 1 1.37 2.45Zm-4.18 8.57c.38 0 .76-.04 1.12-.13.36-.1.67-.24.95-.43.28-.2.5-.45.65-.74a2 2 0 0 0 .25-1.02c0-.5-.1-.9-.3-1.2-.2-.3-.46-.53-.78-.7a3.25 3.25 0 0 0-1.06-.34c-.4-.06-.8-.09-1.19-.09h-1.57v4.52c.09.03.2.04.36.06a49.7 49.7 0 0 0 1.07.07h.5Zm-.99-5.9a18.13 18.13 0 0 0 1.46-.08 3.53 3.53 0 0 0 1.48-.83 2.03 2.03 0 0 0 .4-2.43 1.67 1.67 0 0 0-.59-.63 2.48 2.48 0 0 0-.86-.32c-.32-.07-.65-.1-.99-.1a15.48 15.48 0 0 0-1.84.1v4.28h.94Zm7.8-1.28c.45-.28.98-.48 1.58-.62.61-.13 1.25-.2 1.9-.2.63 0 1.13.09 1.5.26.38.17.67.39.86.66.2.27.34.56.4.89.07.32.1.64.1.97 0 .72-.01 1.42-.05 2.1-.03.69-.05 1.34-.05 1.95 0 .44.02.86.05 1.26.04.4.1.76.2 1.1H39.2l-.38-1.26h-.09a3.06 3.06 0 0 1-.99.93 4.04 4.04 0 0 1-1.82.43c-.38 0-.74-.06-1.08-.18a2.6 2.6 0 0 1-.84-.5c-.24-.23-.43-.5-.58-.81a2.7 2.7 0 0 1-.2-1.06c0-.53.11-.97.33-1.32.21-.36.51-.64.9-.84.4-.22.86-.37 1.4-.45.55-.1 1.16-.15 1.82-.15h.49c.16 0 .33.02.5.04.04-.36.05-.68.05-.97 0-.66-.13-1.12-.4-1.39-.26-.26-.74-.4-1.43-.4-.2 0-.43.02-.67.06a5.69 5.69 0 0 0-1.42.32c-.22.08-.4.16-.58.26l-.45-1.08Zm2.55 7.21c.34 0 .64-.04.9-.12a2.16 2.16 0 0 0 1.15-.81c.13-.17.23-.33.29-.49v-1.5a7.33 7.33 0 0 0-.52-.01 7.07 7.07 0 0 0-2.54.29c-.26.1-.48.26-.65.47-.15.19-.23.43-.23.73 0 .42.15.77.45 1.05.3.26.68.4 1.15.4ZM42.83 37v-9h1.44v7.74h3.08V28h1.44v7.74h3.07V28h1.44v9H42.83Zm24.62-.72c-.36.29-.82.52-1.37.68-.54.17-1.11.26-1.73.26a4.5 4.5 0 0 1-1.78-.33c-.5-.23-.92-.54-1.24-.95a4.22 4.22 0 0 1-.72-1.5 7.44 7.44 0 0 1-.23-1.94c0-1.54.34-2.7 1.02-3.51.69-.8 1.66-1.2 2.94-1.2.4 0 .81.04 1.22.14.4.08.77.25 1.1.5.32.25.59.61.79 1.08.2.46.3 1.06.3 1.82 0 .4-.03.83-.1 1.31h-5.78c0 .53.05 1 .16 1.4.11.42.28.76.5 1.05.23.28.53.5.89.65.37.14.82.22 1.35.22a3.66 3.66 0 0 0 2.14-.72l.54 1.04Zm-3.1-7.24c-.7 0-1.27.19-1.7.56-.43.37-.68 1.01-.76 1.91h4.46c0-.91-.17-1.55-.52-1.9a1.92 1.92 0 0 0-1.48-.57Zm5.35 2.11h4.35v1.33H69.7v-1.33ZM81.78 37v-5.1c0-.47-.02-.89-.07-1.24a2.6 2.6 0 0 0-.23-.9 1.2 1.2 0 0 0-.53-.54c-.21-.12-.5-.18-.86-.18a2 2 0 0 0-1.39.5 2.7 2.7 0 0 0-.75 1.27V37H76.5v-9h1l.28 1.1h.07a3.3 3.3 0 0 1 2.79-1.31c.57 0 1.04.1 1.4.34.37.21.66.6.87 1.15.27-.47.65-.84 1.13-1.1a3.95 3.95 0 0 1 2.93-.22c.35.11.64.31.87.6.23.29.39.68.48 1.17.11.49.17 1.11.17 1.87V37h-1.44v-5.42c0-.43-.03-.8-.08-1.11a1.81 1.81 0 0 0-.25-.8c-.12-.21-.3-.37-.52-.46-.22-.11-.5-.17-.86-.17-.6 0-1.07.17-1.4.5-.34.34-.58.82-.73 1.45V37h-1.44Zm9.2-8.33c.45-.28.97-.48 1.57-.62.62-.13 1.25-.2 1.91-.2.63 0 1.12.09 1.5.26.38.17.67.39.86.66.2.27.34.56.4.89.07.32.1.64.1.97 0 .72-.01 1.42-.05 2.1-.04.69-.05 1.34-.05 1.95 0 .44.01.86.05 1.26s.1.76.2 1.1H96.4l-.38-1.26h-.1a3.06 3.06 0 0 1-.98.93 4.04 4.04 0 0 1-1.82.43c-.38 0-.74-.06-1.08-.18a2.6 2.6 0 0 1-.85-.5c-.24-.23-.43-.5-.57-.81a2.7 2.7 0 0 1-.2-1.06 2.27 2.27 0 0 1 1.22-2.16c.4-.22.87-.37 1.4-.45.56-.1 1.17-.15 1.83-.15h.48c.17 0 .34.02.5.04.04-.36.06-.68.06-.97 0-.66-.13-1.12-.4-1.39-.26-.26-.74-.4-1.44-.4-.2 0-.42.02-.66.06a5.69 5.69 0 0 0-1.42.32c-.22.08-.41.16-.58.26l-.45-1.08Zm2.55 7.21c.33 0 .63-.04.9-.12a2.16 2.16 0 0 0 1.15-.81c.13-.17.23-.33.29-.49v-1.5a7.33 7.33 0 0 0-.53-.01 7.07 7.07 0 0 0-2.53.29c-.27.1-.48.26-.65.47-.16.19-.24.43-.24.73 0 .42.15.77.45 1.05.3.26.69.4 1.16.4Zm6.82-7.88h1.44v9h-1.44v-9Zm-.3-2.74a.99.99 0 0 1 .98-1 1 1 0 0 1 .74.3c.2.2.3.43.3.7 0 .28-.1.5-.3.69-.2.18-.45.27-.74.27-.28 0-.52-.1-.72-.27a.93.93 0 0 1-.27-.69Zm6.41 9.53c0 .42.08.72.22.9.14.18.35.27.61.27.16 0 .32-.02.5-.04s.39-.08.62-.16l.16 1.13a5.1 5.1 0 0 1-1.7.32c-.53 0-.98-.14-1.33-.44-.34-.32-.52-.84-.52-1.57V24.4h1.44v10.39Z" fill="#000"/></svg>