<svg width="44" height="66" fill="none" xmlns="http://www.w3.org/2000/svg"><path d="M20.4 41a1 1 0 0 1-.8-.4l-7-7.9A5.4 5.4 0 0 1 17 24c1.3 0 2.5.5 3.5 1.3 1-.8 2.4-1.3 3.6-1.3 3 0 5.5 2.4 5.5 5.4 0 1.3-.5 2.5-1.3 3.4l-7 7.9c-.3.2-.5.3-.9.3Zm-6-9.5 6.1 6.9 6.3-7c.5-.5.7-1.2.7-2 0-1.8-1.5-3.3-3.3-3.3-1 0-2 .5-2.8 1.3-.3.3-.6.4-.9.4-.3 0-.6-.2-.8-.4a3.7 3.7 0 0 0-2.7-1.3 3.3 3.3 0 0 0-3.3 3.3c0 .9.3 1.6.7 2.1Z" fill="#000"/><rect x="24" y="15" width="20" height="20" rx="10" fill="#7DB54F"/><path d="M30.1 26.8h1.4v-4.9l.1-.6-.4.5-1 .8-.4-.5 2.2-1.7h.3v6.4h1.4v.7H30v-.7ZM38 22l-.2 1-.5 1.2a10.9 10.9 0 0 1-1.5 2.1l-.5.4H38v.7h-4v-.3A33.1 33.1 0 0 0 36 25a9.7 9.7 0 0 0 1-1.9l.1-.9c0-.3 0-.6-.2-.8-.2-.2-.5-.3-.9-.3l-.7.1-.7.4-.3-.6.8-.4a3 3 0 0 1 1-.2l.8.1a1.5 1.5 0 0 1 1 1v.6Z" fill="#fff"/></svg>