<svg width="575" height="60" fill="none" xmlns="http://www.w3.org/2000/svg"><rect width="575" height="60" rx="10" fill="#756257"/><path d="M158.75 28.44h-4.9V40h-2.74V26h10.38v14h-2.74V28.44Zm4.7 4.56c0-2.33.5-4.13 1.54-5.38 1.02-1.27 2.49-1.9 4.4-1.9 1 0 1.87.17 2.62.52.74.35 1.36.84 1.86 1.48.49.64.86 1.4 1.1 2.3.24.9.36 1.89.36 2.98 0 2.33-.52 4.13-1.56 5.4a5.34 5.34 0 0 1-4.38 1.88c-1.02 0-1.9-.17-2.64-.52a4.93 4.93 0 0 1-1.86-1.48 6.68 6.68 0 0 1-1.08-2.3c-.24-.9-.36-1.89-.36-2.98Zm2.88 0c0 .7.06 1.36.18 1.96.12.59.3 1.1.54 1.52a2.56 2.56 0 0 0 2.34 1.36 2.6 2.6 0 0 0 2.26-1.14c.53-.76.8-2 .8-3.7 0-.68-.06-1.31-.18-1.9-.11-.59-.28-1.1-.52-1.54a2.54 2.54 0 0 0-2.36-1.4c-.98 0-1.73.4-2.26 1.18-.54.77-.8 2-.8 3.66Zm19.11-.76.16-1.82h-.1l-.94 1.88-5.22 7.7h-2.06V26h2.74v7.62l-.2 1.88h.12l.98-1.94 5.22-7.56h2.04v14h-2.74v-7.76Zm14.64 7.18c-.42.3-.97.53-1.64.66-.65.13-1.32.2-2.02.2-.84 0-1.64-.13-2.4-.38a5.3 5.3 0 0 1-1.98-1.26 6.43 6.43 0 0 1-1.38-2.26 10.1 10.1 0 0 1-.5-3.38c0-1.37.2-2.52.56-3.44.4-.93.88-1.68 1.48-2.24.62-.57 1.3-.98 2.04-1.22.75-.25 1.5-.38 2.24-.38.8 0 1.48.05 2.02.16.56.1 1.02.23 1.38.38l-.54 2.32c-.3-.15-.67-.25-1.1-.32-.4-.07-.92-.1-1.52-.1-1.1 0-2 .4-2.68 1.18-.66.79-1 2-1 3.66 0 .72.08 1.38.24 1.98.16.59.4 1.1.72 1.52.34.41.74.74 1.22.98.5.23 1.06.34 1.7.34.6 0 1.11-.06 1.52-.18.42-.12.78-.27 1.08-.46l.56 2.24Zm5.16-5.4h-.72V40h-2.74V26h2.74v6.2l.64-.28 3.86-5.92h3.12l-4.08 5.88-1.08.76 1.12.78 4.66 6.58h-3.38l-4.14-5.98Zm21.8-5.58h-5.4V40h-2.73V26h8.13v2.44Zm.16 4.56c0-2.33.5-4.13 1.54-5.38 1.02-1.27 2.49-1.9 4.4-1.9 1 0 1.87.17 2.62.52.74.35 1.36.84 1.86 1.48.49.64.86 1.4 1.1 2.3.24.9.36 1.89.36 2.98 0 2.33-.52 4.13-1.56 5.4a5.34 5.34 0 0 1-4.38 1.88c-1.02 0-1.9-.17-2.64-.52a4.93 4.93 0 0 1-1.86-1.48 6.68 6.68 0 0 1-1.08-2.3c-.24-.9-.36-1.89-.36-2.98Zm2.88 0c0 .7.06 1.36.18 1.96.12.59.3 1.1.54 1.52a2.56 2.56 0 0 0 2.34 1.36 2.6 2.6 0 0 0 2.26-1.14c.53-.76.8-2 .8-3.7 0-.68-.06-1.31-.18-1.9-.11-.59-.28-1.1-.52-1.54a2.54 2.54 0 0 0-2.36-1.4c-.98 0-1.73.4-2.26 1.18-.54.77-.8 2-.8 3.66Zm20.43 6.42c-.42.3-.97.53-1.64.66-.65.13-1.32.2-2.02.2-.84 0-1.64-.13-2.4-.38a5.28 5.28 0 0 1-1.98-1.26 6.43 6.43 0 0 1-1.38-2.26 10.1 10.1 0 0 1-.5-3.38c0-1.37.2-2.52.56-3.44.4-.93.88-1.68 1.48-2.24.62-.57 1.3-.98 2.04-1.22.75-.25 1.5-.38 2.24-.38.8 0 1.48.05 2.02.16.56.1 1.02.23 1.38.38l-.54 2.32c-.3-.15-.67-.25-1.1-.32-.4-.07-.92-.1-1.52-.1-1.1 0-2 .4-2.68 1.18-.66.79-1 2-1 3.66 0 .72.08 1.38.24 1.98a3.64 3.64 0 0 0 1.94 2.5c.5.23 1.06.34 1.7.34.6 0 1.11-.06 1.52-.18.42-.12.78-.27 1.08-.46l.56 2.24Zm11.52-10.98h-4.08V40h-2.74V28.44h-4.1V26h10.92v2.44Zm9.59 3.8.16-1.82h-.1l-.94 1.88-5.22 7.7h-2.06V26h2.74v7.62l-.2 1.88h.12l.98-1.94 5.22-7.56h2.04v14h-2.74v-7.76Zm13.02 1.9h-5.12V40h-2.74V26h2.74v5.7h5.12V26h2.74v14h-2.74v-5.86Zm13.32-1.9.16-1.82h-.1l-.94 1.88-5.22 7.7h-2.06V26h2.74v7.62l-.2 1.88h.12l.98-1.94 5.22-7.56h2.04v14h-2.74v-7.76Zm17.26 10.26h-1.94l-.3-2.5h-9.86V26h2.74v11.56h4.82V26h2.74v11.56h1.8v4.94ZM327.56 26h2.74v14h-2.74V26Zm-10.8 0h2.74v5.02a14.07 14.07 0 0 1 1.64-.16c.66 0 1.3.07 1.9.2a4 4 0 0 1 1.6.72c.45.33.81.8 1.08 1.38.26.57.4 1.3.4 2.18 0 1.63-.48 2.85-1.42 3.66-.95.8-2.36 1.2-4.22 1.2-.19 0-.43 0-.72-.02a33.84 33.84 0 0 1-2-.14c-.36-.04-.7-.1-1-.18V26Zm3.92 11.76c.76 0 1.37-.17 1.84-.52.48-.36.72-.95.72-1.78 0-.44-.07-.8-.2-1.08-.14-.28-.32-.5-.54-.66-.23-.16-.5-.27-.8-.32a4.7 4.7 0 0 0-2.2.06v4.18a4 4 0 0 0 1.18.12Zm26.51-8.5a3.96 3.96 0 0 1-.56 2c-.2.28-.46.53-.78.76-.32.21-.7.37-1.16.48v.12c.4.07.78.18 1.14.34a2.92 2.92 0 0 1 1.56 1.68c.16.4.24.87.24 1.42a3.7 3.7 0 0 1-.46 1.88c-.3.52-.72.95-1.24 1.28-.5.33-1.08.58-1.74.74-.65.16-1.32.24-2.02.24h-.88c-.34 0-.72-.01-1.14-.04-.4-.01-.81-.04-1.24-.08-.41-.04-.8-.1-1.14-.18V26.1a27.47 27.47 0 0 1 3.06-.28l1.18-.02c.66 0 1.29.05 1.9.16.63.1 1.18.27 1.66.52.5.25.89.6 1.18 1.06.3.45.44 1.03.44 1.72Zm-5 8.68c.34 0 .66-.04.96-.12a2.04 2.04 0 0 0 1.42-1c.15-.25.22-.55.22-.9 0-.44-.08-.79-.26-1.04-.17-.25-.4-.45-.68-.58-.28-.15-.6-.24-.94-.28-.34-.04-.7-.06-1.04-.06h-1.46v3.86c.07.03.18.05.32.06a63.08 63.08 0 0 0 .98.06h.48Zm-.9-6.06a11.7 11.7 0 0 0 1.26-.08c.5-.16.94-.4 1.3-.72.38-.32.56-.74.56-1.26a1.5 1.5 0 0 0-.74-1.4 2.13 2.13 0 0 0-.74-.28 4.7 4.7 0 0 0-.88-.08 21.34 21.34 0 0 0-1.64.08v3.74h.88Zm22.58 7.54c-.42.3-.97.53-1.64.66-.65.13-1.32.2-2.02.2-.84 0-1.64-.13-2.4-.38a5.3 5.3 0 0 1-1.98-1.26 6.43 6.43 0 0 1-1.38-2.26 10.1 10.1 0 0 1-.5-3.38c0-1.37.19-2.52.56-3.44.39-.93.88-1.68 1.48-2.24.62-.57 1.3-.98 2.04-1.22.75-.25 1.5-.38 2.24-.38.8 0 1.48.05 2.02.16.56.1 1.02.23 1.38.38l-.54 2.32c-.3-.15-.67-.25-1.1-.32-.41-.07-.92-.1-1.52-.1-1.1 0-2 .4-2.68 1.18-.66.79-1 2-1 3.66 0 .72.08 1.38.24 1.98.16.59.4 1.1.72 1.52.34.41.74.74 1.22.98.5.23 1.06.34 1.7.34.6 0 1.11-.06 1.52-.18.42-.12.78-.27 1.08-.46l.56 2.24Zm1.7-13.42h8.3v2.44h-5.56v3.26h5.06v2.44h-5.06v3.42h5.65V40h-8.4V26Zm22.72 16.5h-1.94l-.3-2.5h-9l-.3 2.5h-1.94v-4.94h1.48c.1-.15.25-.47.46-.98.22-.5.43-1.22.64-2.14a30 30 0 0 0 .54-3.48c.15-1.4.22-3.05.2-4.96h8.38v11.56h1.78v4.94Zm-4.52-4.94v-9.12h-3.1a36.65 36.65 0 0 1-.58 5.84c-.29 1.5-.59 2.6-.9 3.28h4.58Zm5.2-4.56c0-2.33.52-4.13 1.54-5.38 1.03-1.27 2.5-1.9 4.4-1.9 1 0 1.88.17 2.62.52.75.35 1.37.84 1.86 1.48.5.64.86 1.4 1.1 2.3.24.9.36 1.89.36 2.98 0 2.33-.52 4.13-1.56 5.4a5.34 5.34 0 0 1-4.38 1.88c-1.01 0-1.89-.17-2.64-.52a4.93 4.93 0 0 1-1.86-1.48 6.68 6.68 0 0 1-1.08-2.3c-.24-.9-.36-1.89-.36-2.98Zm2.88 0c0 .7.06 1.36.18 1.96.12.59.3 1.1.54 1.52a2.57 2.57 0 0 0 2.34 1.36 2.6 2.6 0 0 0 2.26-1.14c.54-.76.8-2 .8-3.7 0-.68-.06-1.31-.18-1.9-.1-.59-.28-1.1-.52-1.54a2.54 2.54 0 0 0-2.36-1.4c-.97 0-1.72.4-2.26 1.18-.53.77-.8 2-.8 3.66Zm18.82 1.14h-5.12V40h-2.74V26h2.74v5.7h5.12V26h2.74v14h-2.74v-5.86Zm5.17-8.14h8.3v2.44h-5.56v3.26h5.06v2.44h-5.06v3.42h5.66V40h-8.4V26Z" fill="#fff"/></svg>