<svg width="457" height="204" viewBox="0 0 457 204" fill="none" xmlns="http://www.w3.org/2000/svg">
<path d="M380.4 75.7L405.8 1.7H431L456.7 75.7H436.5L432.8 62.3H404.2L400.4 75.7H380.4ZM416.1 23.6L408.6 48.1H428.7L421.2 23.6C420.8 22.4 420.4 21.2 420 20C419.7 18.7 419.4 17.5 419.2 16.2C419 15.7 418.9 15.3 418.9 14.9C418.8 14.4 418.7 14 418.7 13.6C418.6 14 418.5 14.4 418.4 14.9C418.3 15.3 418.2 15.7 418.2 16.2C418.1 16.4 418.1 16.5 418.1 16.7C418.1 16.8 418.1 16.9 418 17C417.8 18.1 417.5 19.3 417.2 20.4C416.7 21.4 416.4 22.5 416.1 23.6ZM298.4 75.7V1.7H317.9L345.8 39.7C346.5 40.8 347.2 42 347.8 43.2C348.5 44.4 349.2 45.6 349.8 46.8L351.2 49.8C351.7 50.8 352.1 51.8 352.6 52.7C352.5 51.9 352.4 51.1 352.3 50.3C352.2 49.5 352.1 48.7 352.1 47.9C351.9 46.3 351.8 44.7 351.8 43.1C351.7 41.4 351.7 39.8 351.7 38.1V1.8H371.1V75.8H351.7L323.6 37.6C322.8 36.7 322.1 35.6 321.4 34.3C320.7 33 320 31.6 319.4 30.2C319 29.2 318.5 28.3 318 27.3C317.6 26.4 317.3 25.4 316.8 24.5C317.2 26.9 317.5 29.3 317.7 31.8C317.9 34.3 318 36.8 318 39.2V75.7H298.4ZM210.4 20.8C214 14.2 218.9 9.2 225.3 5.7C231.7 2.2 238.3 0.5 245.2 0.5C246.1 0.5 247.1 0.500006 248 0.600006C249 0.700006 250 0.800003 250.9 0.800003C253.8 1.2 256.6 1.90001 259.4 2.90001C262.3 3.90001 265 5.2 267.5 6.8C273 10.4 277.3 15.1 280.3 21.1C283.3 27 284.8 33.1 284.8 39.6C284.8 40.4 284.8 41.2 284.7 42C284.7 42.8 284.6 43.5 284.5 44.3C284.3 46 284 47.6 283.6 49.2C283.2 50.8 282.7 52.3 282.1 53.8C278.8 61.3 273.8 67.2 266.9 71.3C260 75.4 252.8 77.5 245.2 77.5C244.7 77.5 244.1 77.5 243.6 77.4H242.1C239.4 77.2 236.8 76.7 234.2 76C231.6 75.3 229.1 74.3 226.8 73.1C220.3 69.7 215.2 64.9 211.5 58.6C207.8 52.3 205.9 45.7 205.9 38.9C205.9 37.9 205.9 36.9 206 35.9C206.1 34.9 206.2 33.8 206.5 32.8C206.9 30.8 207.4 28.7 208.1 26.8C208.5 24.6 209.4 22.7 210.4 20.8ZM263.2 47.4C263.4 46.6 263.6 45.8 263.8 45C264 44.1 264.2 43.3 264.3 42.4C264.4 41.9 264.4 41.3 264.4 40.8C264.5 40.3 264.5 39.8 264.5 39.3C264.5 38.8 264.5 38.4 264.4 37.9V36.5C264 33.2 263 30 261.4 26.9C259.8 23.8 257.5 21.4 254.7 19.7C253.9 19.3 253.2 19 252.4 18.7C251.6 18.4 250.9 18.1 250.1 17.9C249.3 17.7 248.6 17.6 247.8 17.6C247 17.4 246.3 17.4 245.5 17.4C241.6 17.4 237.9 18.6 234.6 21.1C231.3 23.6 228.9 26.9 227.6 31L227.4 31.5V32C227.2 32.7 227 33.5 226.8 34.2C226.6 34.9 226.5 35.6 226.3 36.4L226.1 38V40.4C226.1 40.6 226.1 40.9 226.2 41.2C226.4 45.3 227.7 49.2 229.9 52.9C232.2 56.5 235.4 58.9 239.4 60.1L240.8 60.6C241.3 60.7 241.8 60.8 242.3 60.8L243.7 61H245.1C249.2 61 252.9 59.8 256.1 57.4C259.4 54.8 261.8 51.5 263.2 47.4ZM181.1 68.8C177.5 71.3 173.5 73 169.3 73.9C165.1 74.8 160.7 75.4 156.4 75.6C155.2 75.7 153.9 75.7 152.7 75.7H128.9V1.7H154C155.2 1.7 156.4 1.7 157.6 1.8C161.8 2 165.9 2.6 169.9 3.5C174 4.4 177.8 6.20001 181.2 8.60001C185.5 11.6 188.9 15.6 191.3 20.6C193.7 25.6 195.1 30.7 195.4 35.9C195.5 36.4 195.5 36.8 195.5 37.3V40.2C195.3 45.7 194 51 191.6 56.1C189.2 61.2 185.6 65.5 181.1 68.8ZM148.7 59.1C148.9 59.1 149.2 59.1 149.4 59.2H150.2C150.5 59.2 150.8 59.2 151 59.3H154.1C155 59.2 155.8 59.1 156.5 59.1C158.5 58.9 160.5 58.6 162.4 58.1C164.3 57.6 166.1 56.7 167.6 55.7C170.1 53.9 171.9 51.5 173.1 48.5C174.3 45.4 175 42.2 175 38.9V38C175 37.7 175 37.4 174.9 37.1C174.7 34.2 174 31.3 172.8 28.6C171.6 25.8 169.9 23.6 167.7 22C166.1 20.7 164.2 19.8 162.2 19.3C160.2 18.8 158.2 18.6 156.2 18.5H148.7V59.1ZM68.8 75.7V1.7H114.2V17.8H88.6V30.8H112.6V46.6H88.6V59.1H114.1V75.7H68.8ZM9.4 51.9C9.5 52 9.5 52.1 9.5 52.1C9.6 52.1 9.7 52.1 9.7 52.2C11.8 54.5 14.2 56.7 16.8 58.7C19.4 60.6 22.5 61.7 25.9 61.8C26 61.8 26.1 61.8 26.1 61.9H26.4C26.5 61.9 26.6 61.9 26.6 62H27.9C28.3 61.9 28.6 61.8 28.9 61.8C30.1 61.6 31.3 61.1 32.4 60.4C33.6 59.7 34.5 58.9 35.1 57.8L35.3 57.3L35.5 56.8C35.7 56.3 35.8 55.8 35.8 55.3C35.9 54.8 35.9 54.4 35.9 54C35.9 51.9 35 50.2 33.1 48.8C31.4 47.4 29.4 46.2 27.3 45.4C26.5 45.1 25.7 44.9 24.9 44.7C24.2 44.5 23.4 44.3 22.7 44.1H22.5C22.4 44 22.3 44 22.3 44C18.5 43.1 14.9 41.6 11.6 39.6C8.3 37.5 6 34.5 4.7 30.7C4.5 29.9 4.2 29.1 4 28.3C3.8 27.4 3.7 26.5 3.7 25.6C3.7 25.5 3.7 25.2 3.7 25V22.2C3.8 21.6 3.9 21 4 20.3C4.2 18.7 4.6 17.2 5.2 15.7C5.7 14.2 6.4 12.8 7.3 11.5C9.8 7.4 13 4.5 16.8 2.7C20.7 0.899997 24.9 0 29.1 0C30.1 0 31.1 0.0999969 32.1 0.199997C33.2 0.299997 34.3 0.4 35.4 0.5C38.2 1 41 1.8 43.6 2.8C46.4 3.9 48.9 5.20001 51.3 6.60001L44.9 20.9C42.8 19.4 40.6 18 38.3 16.8C36 15.6 33.5 15.1 30.8 15.1H29.9C28.1 15.3 26.5 16.1 24.9 17.5C23.4 18.8 22.6 20.2 22.6 21.8V22.5C22.7 22.7 22.8 23 22.9 23.2C23.1 23.7 23.3 24.2 23.7 24.7C24.1 25.2 24.5 25.6 25 26C25.9 26.7 27.1 27.4 28.7 28C30.3 28.5 32 29.1 33.8 29.6C35.3 30 36.7 30.4 38.1 30.8C39.5 31.1 40.7 31.4 41.6 31.7C45.9 33.2 49.2 35.8 51.4 39.5C53.6 43.1 54.7 46.9 54.8 50.9V51.5C54.8 52 54.8 52.4 54.7 52.9V54.2C54.2 58.2 52.9 62.1 50.8 65.7C48.7 69.3 45.9 72.1 42.3 74.1C41 74.7 39.6 75.3 38.2 75.7C36.8 76.1 35.4 76.4 34 76.7C32.9 76.9 31.7 77.1 30.5 77.2C29.4 77.4 28.3 77.4 27.1 77.4H25.7C21.1 77.2 16.5 76.2 12 74.4C7.5 72.5 3.5 69.9 0 66.7L9.4 51.9ZM351 199C351 198.7 351.1 198.4 351.2 198.1C351.3 197.8 351.5 197.5 351.7 197.3C351.9 197.1 352.2 196.9 352.5 196.7C352.8 196.6 353.2 196.5 353.6 196.5C354.1 196.5 354.5 196.6 354.9 196.8C355.3 197 355.7 197.2 356 197.5C356.2 197.8 356.4 198.1 356.6 198.5C356.7 198.9 356.8 199.3 356.8 199.8C356.8 200.7 356.6 201.4 356.3 202.2C356 202.9 355.6 203.6 355 204.1C354.7 204.4 354.5 204.6 354.2 204.8C353.9 205 353.6 205.2 353.3 205.3C353 205.4 352.8 205.6 352.6 205.7C352.5 205.8 352.4 205.8 352.2 205.9L350.8 203.9C351 203.8 351.3 203.7 351.6 203.5C351.9 203.4 352.2 203.2 352.5 203C352.8 202.8 353 202.5 353.2 202.2C353.4 201.9 353.5 201.6 353.5 201.2C352.9 201.2 352.3 201 351.8 200.6C351.2 200.3 351 199.8 351 199ZM358.8 199C358.8 198.7 358.9 198.4 359 198.1C359.1 197.8 359.3 197.5 359.5 197.3C359.7 197.1 360 196.9 360.3 196.7C360.6 196.6 361 196.5 361.4 196.5C361.9 196.5 362.3 196.6 362.7 196.8C363.1 197 363.5 197.2 363.8 197.5C364 197.8 364.2 198.1 364.4 198.5C364.5 198.9 364.6 199.3 364.6 199.8C364.6 200.6 364.5 201.4 364.1 202.2C363.8 202.9 363.4 203.6 362.8 204.1C362.5 204.4 362.3 204.6 362 204.8C361.7 205 361.4 205.2 361.1 205.3C360.8 205.4 360.6 205.6 360.4 205.7C360.3 205.8 360.2 205.8 360 205.9L358.7 203.9C358.9 203.8 359.2 203.7 359.5 203.5C359.8 203.4 360.1 203.2 360.4 203C360.7 202.8 360.9 202.5 361.1 202.2C361.3 201.9 361.4 201.6 361.4 201.2C360.8 201.2 360.2 201 359.7 200.6C359 200.3 358.8 199.8 358.8 199ZM94.2 140.3C94.2 140.6 94.1 140.9 94 141.2C93.9 141.5 93.7 141.8 93.5 142C93 142.5 92.3 142.8 91.6 142.8C91.2 142.8 90.7 142.7 90.3 142.5C89.9 142.3 89.5 142.1 89.2 141.8C88.9 141.5 88.7 141.1 88.6 140.8C88.5 140.4 88.4 140 88.4 139.5C88.4 138.6 88.6 137.9 88.9 137.1C89.2 136.4 89.6 135.7 90.2 135.2C90.5 134.9 90.7 134.7 91 134.5C91.3 134.3 91.6 134.1 91.9 134C92.2 133.9 92.4 133.7 92.6 133.6C92.8 133.5 92.9 133.5 93 133.4L94.3 135.4C94 135.5 93.7 135.6 93.5 135.8C93.2 135.9 92.9 136.1 92.6 136.3C92.3 136.5 92.1 136.8 91.9 137.1C91.7 137.4 91.6 137.7 91.6 138.1C92.3 138.1 92.8 138.3 93.3 138.7C94 139.1 94.2 139.6 94.2 140.3ZM86.4 140.3C86.4 140.9 86.2 141.5 85.7 142C85.5 142.2 85.2 142.4 84.9 142.6C84.6 142.7 84.2 142.8 83.8 142.8C83.4 142.8 82.9 142.7 82.5 142.5C82.1 142.3 81.7 142.1 81.4 141.8C81.1 141.5 80.9 141.1 80.8 140.8C80.7 140.4 80.6 140 80.6 139.5C80.6 138.6 80.8 137.9 81.1 137.1C81.4 136.4 81.8 135.7 82.4 135.2C82.6 135 82.9 134.7 83.2 134.5C83.5 134.3 83.8 134.1 84.1 134C84.4 133.9 84.6 133.7 84.8 133.6C85 133.5 85.1 133.5 85.2 133.4L86.5 135.4C86.3 135.5 86 135.6 85.7 135.8C85.4 135.9 85.1 136.1 84.8 136.3C84.5 136.5 84.3 136.8 84.1 137.1C83.9 137.4 83.8 137.7 83.8 138.1C84.5 138.1 85 138.3 85.5 138.7C86.1 139.1 86.4 139.6 86.4 140.3ZM331.7 197.2H335.5L347.3 176.6H343.5L331.7 197.2ZM331.6 198.7C330.4 198.7 329.4 199.7 329.4 200.9C329.4 202.1 330.3 203.1 331.6 203.1C332.8 203.1 333.8 202.2 333.8 200.9C333.8 199.6 332.8 198.7 331.6 198.7ZM305.2 193.2L306.3 191.3C310.7 185.2 313.6 186.9 312.3 189.2L310.5 192.3C309.4 194.2 306 195.6 305.2 193.2ZM330.3 196.1C330.1 195.5 329.4 194.9 328.9 194.8L328.6 195.1C327.3 196.7 325.7 198 324.1 199.2C325.3 195.6 325 190.1 327.4 185.2L324.6 183.7C323 185.8 319.6 190.8 316.2 194.8L315.9 195.1C313.2 198.3 310.5 200.8 308.9 200.8C308.1 200.8 307.3 200 307.3 198.3V196.7C310 197 312.8 195.3 314.5 192.2L315.5 190.5C319 184.5 313.3 182.5 309.4 186L314.8 176.7H311L300.2 195.4C300 195.2 299.8 195.1 299.5 194.9L299.2 195.2C296.5 198.4 293 200.9 290.3 200.9C288 200.9 286.6 199.4 288.3 196.4L292.2 189.6C294.4 185.9 298.2 186.5 296 190.4L295.5 191.3H298.6L299.1 190.4C301.1 186.9 299.2 184.3 296.1 184.3C293 184.3 290.6 185.9 289 188.7L285.3 195.1C285.2 195.1 285.1 195 285.1 195L284.8 195.3C282.1 198.5 279.4 201 277.8 201C277 201 276.5 200.4 277.4 198.9L285.5 184.8H281.7L275 196.5C272.1 199.1 269.9 200.6 269.2 200.2C268.3 199.8 269.2 198.4 269.7 197.6L277.1 184.7H273.3L266 197.4C265.2 198.1 263.6 198.8 262.8 199.3C264 195.7 263.7 190.2 266.1 185.3L263.3 183.8C261.7 185.9 253 197.5 249.6 201.5C249.9 202 250.5 202.4 251 202.8C253.1 200.3 260.3 191.1 261.7 189.3C260.2 193.2 261 200.3 257.4 200.3C256.1 200.3 255.6 198.9 255.6 198.9L253.2 200.1C253.2 200.1 253.9 203.1 257.3 203.1C257.7 203.1 258 203.1 258.4 203H258.5C260.4 202.7 263.1 201.9 264.9 200.6C264.9 202.1 265.8 203.1 267.4 203.1C269.5 203.1 271.8 201.2 273.6 199.5C273.2 201.5 274.4 203.1 276.8 203.1C279.1 203.1 281.8 201.2 284.2 198.7C284.2 201.2 286.2 203.1 289.3 203.1C292.4 203.1 295.4 201.4 298 199.1L295.9 202.8H299.7L304 195.3V198.3C304 201.5 304.6 203.2 307.7 203.2C310.8 203.2 314.4 199.9 317.5 196.2C319.6 193.7 321.5 191.1 322.9 189.3C321.4 193.2 322.2 200.3 318.6 200.3C317.3 200.3 316.8 198.9 316.8 198.9L314.4 200.1C314.4 200.1 315.1 203.1 318.5 203.1C318.9 203.1 319.2 203.1 319.6 203H319.7C323.7 202.5 327.5 199.4 330.3 196.1ZM215.7 195H215.5C214.3 195 213.3 196 213.3 197.3C213.3 197.8 213.4 198.2 213.7 198.6V198.7C211.9 201.7 207.6 201.2 209.8 197.2L212.7 192.2L214.5 189.1C217.2 184.6 220.8 186.4 218.5 190.3L215.7 195ZM190.3 209.2C189.5 210.6 188.2 210.4 188.2 209.4C188.2 208.4 189.1 207.3 192 206.2L190.3 209.2ZM161.5 195.4C159.2 199 157 200.7 155.4 200.7C154.6 200.7 154.1 200.1 155 198.6L160.3 189.4C162.3 185.9 166.4 186.8 164.5 190.2L161.5 195.4ZM149.5 180.7C150.6 178.8 151.9 177.9 152.9 177.9C154.3 177.9 155 178.8 155 180.2C155 183.7 150.6 191 144.8 190.1H144L149.5 180.7ZM242.3 194.8L242 195.1C239.3 198.3 236.6 200.8 235 200.8C234.2 200.8 233.7 200.2 234.6 198.7L240 189.1C241.6 186.2 240.1 184.2 238 184.2C236.4 184.2 234.7 185.1 232.8 187L234.2 184.5H230.4L224.3 195C224.1 194.9 224 194.8 223.8 194.7L223.5 195C221.8 196.9 219.7 197.8 217.8 197.8L221.4 191.7C223.7 187.7 221.6 184 218 184C215.1 184 212.8 185.2 210.7 188.9L208.8 192.1L207.2 194.9C207.1 194.8 207 194.8 206.9 194.7L206.6 195C203.5 198.6 200.8 200.9 197.8 202.2L208.2 184.5H204.4L197.7 196.1C194.8 198.8 192.5 200.3 191.8 200C190.9 199.6 191.8 198.2 192.3 197.4L199.7 184.5H195.9L189.9 194.9C189.8 194.8 189.7 194.8 189.6 194.7L189.3 195C186.6 198.2 183.9 200.7 182.3 200.7C181.5 200.7 181 200.1 181.9 198.6L187.3 189C188.9 186.1 187.4 184.1 185.3 184.1C183.7 184.1 182 185 180.1 186.9L181.5 184.4H177.7L171.7 194.8C171.6 194.7 171.5 194.7 171.3 194.6L171 194.9C168.3 198.1 165.6 200.6 164 200.6C163.2 200.6 162.7 200 163.6 198.5L169.7 187.8H167.6C167.7 186.2 166.1 184 163.6 184C161.6 184 158.7 185.6 157.1 188.4L153.2 195.1C152.9 194.9 152.6 194.7 152.4 194.6L152.1 194.9C149.4 198.1 147.3 200.6 143.5 200.6C140.9 200.6 139.4 198 141.6 194.2L142.7 192.3C143.4 192.4 144.1 192.5 144.8 192.5C148.8 192.5 153.4 190.4 156.4 185.2C157.5 183.3 157.9 181.6 157.9 180.1C157.9 176.7 155.7 174.5 152.9 174.5C150.8 174.5 148.4 176 146.7 178.9L140.8 189C138.6 187.8 137.4 185.7 137.4 183.6C137.4 181.9 138.2 180.1 139.8 178.8L138.6 176.6C135.9 178.5 134.7 181.1 134.7 183.6C134.7 186.6 136.4 189.5 139.5 191.1L138.4 193.1C135.7 197.7 137.3 202.8 142.6 202.8C146.8 202.8 148.7 200.9 151.3 198.4C150.5 200.8 151.7 202.8 154.3 202.8C155.8 202.8 157.7 201.8 159.5 200.3C159.7 201.8 160.8 202.8 162.8 202.8C164.6 202.8 166.6 201.7 168.5 200L167.1 202.4H170.9L176.7 192.3C182.5 185.1 185.1 186 183.4 188.8L178.5 197.3C176.9 200.1 178 202.7 181.1 202.7C183.1 202.7 185.4 201.3 187.5 199.3C187 201.4 188 202.7 189.9 202.7C191.7 202.7 193.8 201.2 195.5 199.7L193.4 203.3C188.3 204.8 185.1 206.9 185.1 209.8C185.1 213.4 190.7 214.2 193.4 209.5L196.3 204.5C199.5 203.5 202.6 201.5 205.8 198.3C205.3 203.6 212.3 204.8 216.5 199.4H217.3C218.7 199.4 220.5 198.9 222.2 197.9L219.7 202.3H223.5L229.3 192.2C235.1 185 237.7 185.9 236 188.7L231.1 197.2C229.5 200 230.6 202.6 233.7 202.6C236.8 202.6 240.4 199.3 243.5 195.6C243.4 195.6 242.8 195 242.3 194.8ZM360.9 159.2C358.6 162.9 356.3 164.7 354.7 164.7C353.9 164.7 353.4 164.1 354.3 162.6L359.6 153.4C361.6 149.9 365.7 150.8 363.8 154.2L360.9 159.2ZM324.7 159.4C322.4 163 320.2 164.7 318.6 164.7C317.8 164.7 317.3 164.1 318.2 162.6L323.5 153.4C325.5 149.9 329.6 150.8 327.7 154.2L324.7 159.4ZM284.8 173.2C284 174.6 282.7 174.4 282.7 173.4C282.7 172.4 283.6 171.3 286.5 170.2L284.8 173.2ZM292.8 144.7C293.9 142.8 295.2 141.9 296.2 141.9C302.2 141.9 297.7 156.3 288.1 154.1H287.3L292.8 144.7ZM370.5 158.8L370.2 159.1C367.5 162.3 364.8 164.8 363.2 164.8C362.4 164.8 361.9 164.2 362.8 162.7L375.6 140.6H371.8L366.2 150.2C365.5 149.1 364.3 148.2 362.7 148.2C360.7 148.2 357.8 149.8 356.2 152.6L352.5 159C352.4 159 352.3 158.9 352.3 158.9L352 159.2C349.3 162.4 347 164.9 345.3 164.9C344.5 164.9 344 164.3 344.9 162.8L350.4 153.2C352 150.3 350.5 148.3 348.4 148.3C346.8 148.3 345.1 149.2 343.2 151.1L344.6 148.6H340.8L334.8 159C334.7 158.9 334.6 158.9 334.4 158.8L334.1 159.1C331.4 162.3 328.7 164.8 327.1 164.8C326.3 164.8 325.8 164.2 326.7 162.7L332.8 152H330.7C330.8 150.4 329.2 148.2 326.7 148.2C324.7 148.2 321.8 149.8 320.2 152.6L316.5 158.9L316.3 159.1C313.6 162.3 310.5 164.8 308.9 164.8C308.1 164.8 307.6 164.2 308.5 162.7L312.3 156.1C313.6 153.8 313 152.5 311.8 151L309.7 148.5C309.2 147.8 309.2 147 309.9 146.3L307.9 144.2C305.8 146.1 305.6 148.3 306.9 150L307.2 150.4C305.5 152.8 303.3 156 300.8 158.9C300.9 159 301 159.1 301.1 159.2C298 162.8 295.3 165.1 292.4 166.4L297.2 158.2H293.4L293 158.9C291 162.4 288.7 164.9 285.8 164.9C283.2 164.9 282.8 162.3 285 158.5L286.1 156.6C286.8 156.7 287.5 156.8 288.2 156.8C301.6 156.8 308.1 138.8 296.3 138.8C294.2 138.8 291.8 140.3 290.1 143.2L284.2 153.3C282 152.1 280.8 150 280.8 147.9C280.8 146.2 281.6 144.4 283.2 143.1L282 140.9C279.3 142.8 278.1 145.4 278.1 147.9C278.1 150.9 279.8 153.8 282.9 155.4L281.8 157.4C279.1 162 279.6 167.1 285 167.1C286.6 167.1 287.9 166.6 289.1 165.9L288.1 167.6C283 169.2 279.8 171.2 279.8 174.1C279.8 177.7 285.4 178.5 288.1 173.8L291 168.8C294.9 167.6 298.8 164.9 302.9 160.1C302.8 160 302.8 159.9 302.7 159.7C304.4 157.7 305.8 155.8 308.7 152L309.2 152.6C309.7 153.2 309.9 154 309.4 154.7L305.4 161.6C303.8 164.4 304.9 167 308 167C309.9 167 312.3 165.8 314.4 164C314.4 165.7 315.5 167 317.7 167C319.2 167 321.1 166 322.9 164.5C323.1 166 324.2 167 326.2 167C328 167 330 165.9 331.9 164.2L330.5 166.6H334.3L340.1 156.5C345.9 149.3 348.5 150.2 346.8 153L341.9 161.5C340.3 164.3 341.4 166.9 344.5 166.9C346.5 166.9 348.3 165.5 350.5 163.6C350.3 165.5 351.5 166.9 353.8 166.9C355.3 166.9 357.2 165.9 359 164.4C359.2 165.9 360.3 166.9 362.3 166.9C365.4 166.9 369 163.6 372.1 159.9C371.6 159.6 371 159 370.5 158.8ZM258.2 153.5C260.4 149.8 264.2 150.4 262 154.3L261.5 155.2C259.7 158.3 257.2 158.2 255.8 157.7L258.2 153.5ZM255.2 167.1C259.5 167.1 263.7 163.8 266.9 160.1C266.6 159.6 266 159 265.5 158.8L265.2 159.1C262.5 162.3 259 164.8 256.3 164.8C254 164.8 252.6 163.3 254.3 160.3L254.7 159.6C257.1 160.6 261.7 160.1 264.5 155.2L265 154.3C267 150.8 265.1 148.2 262 148.2C259 148.2 256.5 149.8 254.9 152.6L251.2 158.9C251.2 158.9 251.1 158.9 251.1 158.8L250.8 159.1C248.1 162.3 245.4 164.8 243.8 164.8C243 164.8 242.5 164.2 243.4 162.7L248.8 153.1C250.4 150.2 248.9 148.2 246.8 148.2C245.2 148.2 243.4 149.1 241.5 151.1L247.5 140.6H243.7L233 159.1C232.9 159 232.7 158.9 232.6 158.8L232.3 159.1C229.6 162.3 226.9 164.8 225.3 164.8C224.5 164.8 224 164.2 224.9 162.7L233 148.6H236.1L237.2 146.8H234.1L237.7 140.6H233.9L230.3 146.8H226.9L225.8 148.6H229.2L221.6 161.8C220 164.6 221.1 167.2 224.2 167.2C226.1 167.2 228.1 166 230.1 164.2L228.6 166.8H232.4L238.1 156.8C243.9 149.5 246.5 150.4 244.9 153.2L240 161.7C238.4 164.5 239.5 167.1 242.6 167.1C244.9 167.1 247.4 165.3 249.9 162.9C250.1 165.3 252.1 167.1 255.2 167.1ZM127.7 153.5C129.9 149.8 133.7 150.4 131.5 154.3L131 155.2C129.2 158.3 126.7 158.2 125.3 157.7L127.7 153.5ZM150.8 162.7L156.1 153.5C158.1 150 162.2 150.9 160.3 154.3L157.4 159.5C155.1 163.1 152.9 164.8 151.3 164.8C150.4 164.7 149.9 164.2 150.8 162.7ZM204.8 153.5C207 149.8 210.8 150.4 208.6 154.3L208.1 155.2C206.3 158.3 203.9 158.2 202.4 157.7L204.8 153.5ZM147 163C146.4 165.2 147.6 167.1 150.1 167.1C151.6 167.1 153.5 166.1 155.3 164.6C155.5 166.1 156.6 167.1 158.6 167.1C160.6 167.1 162.8 165.7 165 163.8C164.6 165.8 165.5 167.1 167.4 167.1C169.5 167.1 171.8 165.2 173.6 163.5C173.2 165.5 174.4 167.1 176.8 167.1C179.9 167.1 183.5 163.8 186.6 160.1C186.6 160.1 186.5 160 186.5 159.9C188.6 157.5 190.4 154.9 191.7 153.1C190.2 157 191 164.1 187.4 164.1C186.1 164.1 185.6 162.7 185.6 162.7L183.2 163.9C183.2 163.9 183.9 167 187.3 167C187.7 167 188 167 188.4 166.9H188.5C191.3 166.5 194 164.8 196.4 162.7C196.5 165.2 198.4 167 201.5 167C205.8 167 210 163.7 213.2 160C212.9 159.5 212.3 158.9 211.8 158.7L211.5 159C208.8 162.2 205.3 164.7 202.6 164.7C200.3 164.7 198.9 163.2 200.6 160.2L201 159.5C203.4 160.5 208 160 210.8 155.1L211.3 154.2C213.3 150.7 211.4 148.1 208.3 148.1C205.2 148.1 202.8 149.7 201.2 152.5L197.5 158.8H197.4L197.1 159.1C195.8 160.7 194.2 162 192.6 163.2C193.8 159.6 193.5 154.1 195.9 149.2L193.1 147.7C191.5 149.8 188.1 154.8 184.7 158.8L184.8 158.9L184.7 159.1C182 162.3 179.3 164.8 177.7 164.8C176.9 164.8 176.4 164.2 177.3 162.7L185.4 148.6H181.6L174.9 160.3C172 162.9 169.8 164.4 169.1 164C168.2 163.6 169.1 162.2 169.6 161.4L177 148.5H173.2L167.2 158.9C167.1 158.8 167 158.8 166.9 158.7L166.6 159C163.9 162.2 161.2 164.7 159.6 164.7C158.8 164.7 158.3 164.1 159.2 162.6L165.3 151.9H163.2C163.3 150.3 161.7 148.1 159.2 148.1C157.2 148.1 154.3 149.7 152.7 152.5L148.9 159.1C148.7 159 148.5 158.8 148.3 158.7L148 159C145.3 162.2 142.1 164.7 139.5 164.7C137.2 164.7 135.8 163.2 137.5 160.2L141.4 153.4C143.6 149.7 147.4 150.3 145.2 154.2L144.7 155.1H147.8L148.3 154.2C150.3 150.7 148.4 148.1 145.3 148.1C142.2 148.1 140.2 149.7 138.6 152.5L134.8 158.9C134.7 158.8 134.6 158.8 134.5 158.7L134.2 159C131.5 162.2 128.3 164.7 125.6 164.7C123.3 164.7 121.9 163.2 123.6 160.2L124 159.5C126.4 160.5 131 160 133.8 155.1L134.3 154.2C136.3 150.7 134.4 148.1 131.3 148.1C128.2 148.1 125.8 149.7 124.2 152.5L120.2 159.3C117.8 163.3 119.9 167 124.3 167C127.6 167 130.3 165 133.1 162.4C133 165 135 167 138.2 167C141.6 167.1 144.3 165.3 147 163ZM110.1 149L113.2 143.8C116 139 119.5 141.8 117.6 145.4C116.1 148.1 114 149 110.1 149ZM106 166.3C103.7 166.3 102 165.8 100.6 165C101.3 164.2 101.9 163.3 102.5 162.3L108.9 151.3L109.9 151.4C118.7 153.2 115.2 166.3 106 166.3ZM115.4 150.8C123 148.2 123.6 138.7 116.1 138.7C114 138.7 111.6 140.2 109.9 143.1L99.7 160.7C99.3 161.5 98.8 162.2 98.2 162.8C95.6 159.2 96.3 153.8 100 151.5L98.5 149.6C90.6 154.6 92.9 169.2 106.1 169.2C117.4 169.2 122.6 155.6 115.4 150.8Z" fill="white"/>
</svg>
