<svg width="160" height="37" fill="none" xmlns="http://www.w3.org/2000/svg"><rect width="160" height="37" rx="4" fill="#F2F2F2"/><path d="M33.96 13.91c.4-.1.84-.16 1.31-.19.47-.03.94-.05 1.4-.05.49 0 .98.05 1.48.15.52.1.98.27 1.4.52.41.26.75.61 1 1.06.27.45.4 1.02.4 1.71A3.31 3.31 0 0 1 39.61 20c-.4.29-.87.5-1.4.63-.52.12-1.05.19-1.6.19h-.66l-.39-.03a2.75 2.75 0 0 1-.27-.04V25h-1.33V13.91Zm2.74.91c-.28 0-.55 0-.8.02-.26.01-.46.04-.61.08v4.64c.05.02.14.04.26.05l.36.01h.63c.36 0 .72-.03 1.07-.1.36-.07.69-.2.98-.38.28-.18.51-.43.68-.76.18-.33.28-.76.28-1.27 0-.44-.09-.8-.26-1.09-.16-.3-.38-.53-.66-.7-.26-.18-.57-.3-.9-.38a4.78 4.78 0 0 0-1.03-.12Zm6.2-1.02H49v1.18h-4.77v3.67h4.37v1.18h-4.37v3.99h4.85V25H42.9V13.8Zm15.43 3.62.1-1.28h-.07l-.7 1.3-5.4 7.56h-.78V13.8h1.33v7.68l-.12 1.26h.07l.7-1.3 5.4-7.64h.8V25h-1.33v-7.58Zm-4.08-6.34c.04.4.19.7.44.91.26.22.6.32 1.03.32.42 0 .76-.1 1-.32.26-.21.42-.51.47-.9l1.14.28a2.28 2.28 0 0 1-.82 1.37c-.42.33-1.02.5-1.8.5-.77 0-1.39-.14-1.88-.43-.48-.3-.76-.77-.85-1.41l1.27-.32Zm15.35 3.9h-3.49V25h-1.33V14.98H61.3V13.8h8.3v1.18Zm8.5 2.44.09-1.28h-.07l-.69 1.3-5.4 7.56h-.79V13.8h1.33v7.68l-.11 1.26h.06l.7-1.3 5.41-7.64h.79V25h-1.33v-7.58Zm10.74 2.44h-5.38V25h-1.33V13.8h1.33v4.88h5.38V13.8h1.33V25h-1.33v-5.14Zm10.04-4.88h-4.67V25h-1.33V13.8h6v1.18Zm1.18 2.84a.9.9 0 0 1 .24-.68.9.9 0 0 1 .67-.25c.29 0 .52.08.69.25.17.16.25.39.25.68 0 .27-.08.5-.25.67a.93.93 0 0 1-.69.25.9.9 0 0 1-.67-.25.94.94 0 0 1-.24-.67Zm0 6.44a.9.9 0 0 1 .24-.67.9.9 0 0 1 .67-.25c.29 0 .52.08.69.25.17.16.25.39.25.67s-.08.5-.25.68a.93.93 0 0 1-.69.25.9.9 0 0 1-.67-.25.94.94 0 0 1-.24-.68Zm7.4-1.93c0-.67.17-1.26.52-1.75.35-.5.9-.95 1.65-1.36a4.13 4.13 0 0 1-1.36-1.1c-.17-.22-.3-.47-.41-.75-.1-.28-.15-.6-.15-.96a2.61 2.61 0 0 1 1.8-2.6c.4-.13.83-.2 1.3-.2.45 0 .86.06 1.22.19s.67.3.91.53c.26.22.46.49.6.8a3.11 3.11 0 0 1-.2 2.64c-.29.46-.75.91-1.39 1.36.28.16.54.33.78.53a3.39 3.39 0 0 1 1.1 1.44 3.44 3.44 0 0 1-.06 2.26 2.76 2.76 0 0 1-1.7 1.6 4.2 4.2 0 0 1-1.43.23c-.51 0-.97-.07-1.36-.22-.4-.15-.73-.35-1-.61a2.58 2.58 0 0 1-.62-.9c-.13-.35-.2-.73-.2-1.13Zm5.3-.16c0-.32-.07-.6-.2-.83a3.6 3.6 0 0 0-1.22-1.2c-.26-.16-.54-.32-.83-.47-.65.36-1.11.77-1.4 1.22-.27.45-.4.87-.4 1.28 0 .25.04.5.12.73.09.24.22.44.39.61a2 2 0 0 0 .62.42c.25.1.55.14.88.14a2.05 2.05 0 0 0 1.4-.46c.2-.16.35-.36.46-.6.11-.24.17-.52.17-.84Zm-3.8-5.8c0 .3.06.57.18.8.11.23.27.43.46.61.2.19.43.36.69.52.25.15.52.29.8.43.48-.38.83-.74 1.05-1.1.24-.37.36-.77.36-1.2 0-.55-.17-.97-.52-1.25-.33-.3-.73-.45-1.2-.45a1.93 1.93 0 0 0-1.34.51 1.53 1.53 0 0 0-.48 1.14Zm6.91 7.94c0-.25.08-.46.26-.62a.92.92 0 0 1 .65-.24 1 1 0 0 1 .8.35c.22.23.32.58.32 1.02 0 .39-.05.72-.16 1.01a2.45 2.45 0 0 1-.97 1.25c-.2.14-.4.24-.61.3l-.4-.62c.38-.15.66-.38.85-.7.19-.31.28-.63.28-.95a.86.86 0 0 1-.27.05.77.77 0 0 1-.54-.2c-.14-.16-.21-.37-.21-.65Zm3.64-7.12c0-.51.08-.98.23-1.42a3 3 0 0 1 1.73-1.89c.43-.18.94-.27 1.51-.27 1.1 0 1.94.35 2.55 1.05.6.7.91 1.7.91 2.98 0 1.2-.14 2.26-.42 3.17-.26.9-.64 1.65-1.12 2.27a5.31 5.31 0 0 1-1.7 1.46 6.2 6.2 0 0 1-2.14.65l-.28-1.02a5.1 5.1 0 0 0 1.66-.55c.5-.26.93-.6 1.28-1 .36-.4.66-.87.88-1.38.22-.52.38-1.09.46-1.7-.28.35-.6.59-.96.72-.34.13-.8.2-1.36.2a3.18 3.18 0 0 1-2.27-.85c-.3-.28-.53-.62-.7-1.03-.17-.4-.26-.87-.26-1.39Zm1.33-.13c0 .76.2 1.33.6 1.72.4.37.92.56 1.58.56.52 0 .97-.09 1.34-.26.37-.17.64-.4.8-.67l.03-.37v-.34a4.18 4.18 0 0 0-.54-2.06 1.9 1.9 0 0 0-.72-.67 2.08 2.08 0 0 0-1.03-.24c-.65 0-1.15.2-1.52.62-.36.4-.54.98-.54 1.71Z" fill="#333"/></svg>