<svg width="160" height="37" fill="none" xmlns="http://www.w3.org/2000/svg"><rect width="160" height="37" rx="4" fill="#F2F2F2"/><path d="M33.96 13.91c.4-.1.84-.16 1.31-.19.47-.03.94-.05 1.4-.05.49 0 .98.05 1.48.15.52.1.98.27 1.4.52.41.26.75.61 1 1.06.27.45.4 1.02.4 1.71A3.31 3.31 0 0 1 39.61 20c-.4.29-.87.5-1.4.63-.52.12-1.05.19-1.6.19h-.66l-.39-.03a2.75 2.75 0 0 1-.27-.04V25h-1.33V13.91Zm2.74.91c-.28 0-.55 0-.8.02-.26.01-.46.04-.61.08v4.64c.05.02.14.04.26.05l.36.01h.63c.36 0 .72-.03 1.07-.1.36-.07.69-.2.98-.38.28-.18.51-.43.68-.76.18-.33.28-.76.28-1.27 0-.44-.09-.8-.26-1.09-.16-.3-.38-.53-.66-.7-.26-.18-.57-.3-.9-.38a4.78 4.78 0 0 0-1.03-.12Zm6.2-1.02H49v1.18h-4.77v3.67h4.37v1.18h-4.37v3.99h4.85V25H42.9V13.8Zm15.43 3.62.1-1.28h-.07l-.7 1.3-5.4 7.56h-.78V13.8h1.33v7.68l-.12 1.26h.07l.7-1.3 5.4-7.64h.8V25h-1.33v-7.58Zm-4.08-6.34c.04.4.19.7.44.91.26.22.6.32 1.03.32.42 0 .76-.1 1-.32.26-.21.42-.51.47-.9l1.14.28a2.28 2.28 0 0 1-.82 1.37c-.42.33-1.02.5-1.8.5-.77 0-1.39-.14-1.88-.43-.48-.3-.76-.77-.85-1.41l1.27-.32Zm15.35 3.9h-3.49V25h-1.33V14.98H61.3V13.8h8.3v1.18Zm8.5 2.44.09-1.28h-.07l-.69 1.3-5.4 7.56h-.79V13.8h1.33v7.68l-.11 1.26h.06l.7-1.3 5.41-7.64h.79V25h-1.33v-7.58Zm10.74 2.44h-5.38V25h-1.33V13.8h1.33v4.88h5.38V13.8h1.33V25h-1.33v-5.14Zm10.04-4.88h-4.67V25h-1.33V13.8h6v1.18Zm1.18 2.84a.9.9 0 0 1 .24-.68.9.9 0 0 1 .67-.25c.29 0 .52.08.69.25.17.16.25.39.25.68 0 .27-.08.5-.25.67a.93.93 0 0 1-.69.25.9.9 0 0 1-.67-.25.94.94 0 0 1-.24-.67Zm0 6.44a.9.9 0 0 1 .24-.67.9.9 0 0 1 .67-.25c.29 0 .52.08.69.25.17.16.25.39.25.67s-.08.5-.25.68a.93.93 0 0 1-.69.25.9.9 0 0 1-.67-.25.94.94 0 0 1-.24-.68Zm7.14-7.07c0-.51.07-.98.22-1.42a3 3 0 0 1 1.73-1.89c.44-.18.95-.27 1.52-.27 1.09 0 1.94.35 2.55 1.05.6.7.9 1.7.9 2.98 0 1.2-.13 2.26-.4 3.17-.28.9-.65 1.65-1.13 2.27a5.3 5.3 0 0 1-1.71 1.46c-.65.34-1.36.56-2.13.65l-.29-1.02c.62-.1 1.18-.28 1.67-.55.5-.26.93-.6 1.28-1 .36-.4.65-.87.88-1.38a6.6 6.6 0 0 0 .46-1.7c-.29.35-.6.59-.96.72-.34.13-.8.2-1.36.2a3.2 3.2 0 0 1-2.27-.85c-.3-.28-.53-.62-.7-1.03-.17-.4-.26-.87-.26-1.39Zm1.33-.13c0 .76.2 1.33.59 1.72.4.37.93.56 1.58.56.53 0 .97-.09 1.35-.26.37-.17.64-.4.8-.67l.03-.37v-.34a4.18 4.18 0 0 0-.55-2.06 1.89 1.89 0 0 0-.72-.67 2.08 2.08 0 0 0-1.02-.24c-.65 0-1.16.2-1.52.62-.36.4-.54.98-.54 1.71Zm7.34 7.25c0-.25.08-.46.26-.62a.92.92 0 0 1 .65-.24 1 1 0 0 1 .8.35c.22.23.32.58.32 1.02 0 .39-.05.72-.16 1.01a2.45 2.45 0 0 1-.97 1.25c-.2.14-.4.24-.61.3l-.4-.62c.38-.15.66-.38.85-.7.19-.31.28-.63.28-.95a.86.86 0 0 1-.27.05.77.77 0 0 1-.54-.2c-.14-.16-.21-.37-.21-.65Zm9.95-7.97c0 .57-.11 1.15-.32 1.75-.2.58-.48 1.18-.82 1.77-.33.6-.7 1.19-1.12 1.76-.42.57-.83 1.1-1.25 1.62l-.78.69v.06l1.02-.17h3.49V25h-6.37v-.46l.85-.92a26.15 26.15 0 0 0 2.08-2.6c.35-.5.67-1.01.94-1.52a9.1 9.1 0 0 0 .7-1.52c.16-.5.25-.98.25-1.43 0-.52-.15-.95-.45-1.3-.3-.35-.75-.52-1.36-.52-.4 0-.8.08-1.18.25-.39.16-.72.35-1 .56l-.52-.9c.37-.33.81-.58 1.32-.76a4.9 4.9 0 0 1 1.65-.27c.46 0 .87.07 1.22.2a2.42 2.42 0 0 1 1.45 1.45c.13.33.2.69.2 1.08Z" fill="#333"/></svg>