<svg width="141" height="37" fill="none" xmlns="http://www.w3.org/2000/svg"><rect x=".06" width="140.94" height="37" rx="4" fill="#83B3D3"/><path d="M29.4 16.4a3.19 3.19 0 0 1-.44 1.6 2.6 2.6 0 0 1-.62.62c-.26.17-.57.3-.93.38v.1c.32.05.62.14.91.27a2.34 2.34 0 0 1 1.25 1.34c.13.32.2.7.2 1.14 0 .57-.13 1.08-.38 1.5-.24.42-.57.76-.99 1.03-.4.26-.87.46-1.4.59-.51.13-1.05.19-1.6.19h-.71l-.91-.03c-.32-.01-.65-.03-1-.07a7.11 7.11 0 0 1-.9-.14V13.88a21.77 21.77 0 0 1 3.38-.24c.53 0 1.03.04 1.52.13.5.07.95.21 1.33.41.4.2.71.49.95.85.23.36.35.82.35 1.38Zm-4 6.95c.28 0 .53-.03.78-.1.25-.06.48-.15.67-.28.2-.14.35-.31.46-.51.12-.2.18-.45.18-.72 0-.36-.07-.63-.2-.84-.15-.2-.33-.35-.55-.46-.23-.12-.48-.2-.76-.22a7.25 7.25 0 0 0-.83-.05h-1.17v3.09a49.04 49.04 0 0 0 1.04.1h.39Zm-.71-4.85a9.3 9.3 0 0 0 1-.06c.41-.13.76-.32 1.05-.58.3-.25.44-.59.44-1 0-.28-.05-.51-.16-.7a1.2 1.2 0 0 0-.43-.42 1.7 1.7 0 0 0-.59-.23 3.75 3.75 0 0 0-.7-.06 16.95 16.95 0 0 0-1.32.06v3h.7Zm17.21.3.13-1.46h-.08l-.75 1.5L37.02 25h-1.65V13.8h2.2v6.1l-.17 1.5h.1l.78-1.55 4.18-6.05h1.63V25H41.9v-6.2ZM47 20.03v-1.71h1.15l.43-.03.34-.07c.37-.08.7-.23.96-.45.27-.22.4-.52.4-.9 0-.5-.17-.85-.5-1.03-.32-.2-.74-.29-1.28-.29a5.28 5.28 0 0 0-2.29.56l-.56-1.86a8.25 8.25 0 0 1 2.18-.6 7.86 7.86 0 0 1 2.38.08c.45.08.85.23 1.2.44.36.22.64.5.85.87.22.35.32.8.32 1.36a2.8 2.8 0 0 1-.45 1.53c-.28.47-.75.81-1.4 1.03v.08c.69.14 1.23.44 1.61.9.4.45.6 1.07.6 1.83 0 .61-.13 1.13-.37 1.57a3.2 3.2 0 0 1-.98 1.06c-.4.28-.85.48-1.38.6-.52.14-1.05.21-1.6.21-.7 0-1.34-.05-1.92-.17a5.3 5.3 0 0 1-1.32-.42l.56-1.9c.24.12.6.24 1.05.37.46.11 1 .17 1.63.17.24 0 .47-.02.7-.08.25-.06.47-.16.66-.29.2-.13.35-.31.47-.52.12-.22.17-.47.17-.77 0-.5-.18-.88-.56-1.14-.37-.25-1.04-.4-2-.41a3.78 3.78 0 0 0-.28-.02h-.77Zm7.46-6.24h6.9v1.95h-4.7v2.34a13.47 13.47 0 0 1 1.43-.15c.6 0 1.15.06 1.65.18s.93.31 1.28.6c.36.26.65.62.85 1.06.2.44.3.98.3 1.62 0 .63-.1 1.18-.32 1.65-.2.47-.5.86-.9 1.17-.38.3-.85.54-1.4.7-.55.16-1.16.24-1.84.24a18.45 18.45 0 0 1-1.55-.06l-.9-.08c-.3-.04-.56-.08-.8-.13V13.8Zm3.4 9.55c.29 0 .54-.03.78-.1a2 2 0 0 0 .64-.31c.18-.15.32-.34.43-.56.1-.23.16-.5.16-.82 0-.38-.06-.7-.18-.93a1.33 1.33 0 0 0-.48-.54 1.7 1.7 0 0 0-.7-.27 5.06 5.06 0 0 0-1.86.04v3.41c.12.03.3.06.53.07l.69.01Zm5.73-9.44a16.57 16.57 0 0 1 3.09-.27c.55 0 1.1.05 1.66.14.56.09 1.07.27 1.52.55.45.26.8.64 1.09 1.13.28.48.43 1.11.43 1.9 0 .7-.12 1.3-.37 1.78s-.57.88-.98 1.19c-.4.3-.87.53-1.39.67a6.1 6.1 0 0 1-1.6.2h-.62l-.39-.02a2.7 2.7 0 0 1-.25-.04V25h-2.2V13.91Zm3.26 1.62a5.52 5.52 0 0 0-1.07.08v3.63l.19.03.27.03h.48c.29 0 .57-.02.85-.08.29-.05.54-.15.77-.28.22-.15.4-.36.53-.61.13-.26.2-.6.2-1.01 0-.35-.06-.64-.19-.86-.13-.24-.3-.43-.51-.56-.2-.14-.44-.24-.7-.3a4.15 4.15 0 0 0-.82-.07Zm10.18 6.99h-3.44L72.73 25h-2.2l4.04-11.28h1.62L80.22 25h-2.3l-.9-2.48Zm-2.88-1.76h2.4l-.83-2.5-.34-1.76h-.08l-.34 1.78-.81 2.48Zm13.33-.45h-4.1V25H81.2V13.8h2.19v4.56h4.1V13.8h2.19V25h-2.2v-4.69Zm10.42 0h-4.1V25h-2.18V13.8h2.19v4.56h4.1V13.8h2.19V25h-2.2v-4.69Zm3.79-.91c0-1.87.4-3.3 1.23-4.3.82-1.02 2-1.52 3.52-1.52.8 0 1.5.13 2.1.41.6.28 1.09.67 1.48 1.19.4.5.7 1.12.88 1.84.2.71.3 1.5.3 2.38 0 1.87-.42 3.3-1.26 4.32-.82 1-1.99 1.5-3.5 1.5-.81 0-1.52-.13-2.11-.41-.6-.28-1.1-.67-1.5-1.19a5.34 5.34 0 0 1-.85-1.84c-.2-.71-.3-1.5-.3-2.38Zm2.3 0a8 8 0 0 0 .14 1.57c.1.47.24.87.44 1.21a2.05 2.05 0 0 0 1.87 1.09c.78 0 1.38-.3 1.8-.91.43-.6.65-1.6.65-2.96 0-.54-.05-1.05-.15-1.52a4.08 4.08 0 0 0-.41-1.23 2.03 2.03 0 0 0-1.89-1.12c-.78 0-1.38.31-1.8.94-.44.62-.65 1.6-.65 2.93Zm8.77-5.6h6.64v1.95h-4.45v2.61h4.05v1.95h-4.05v2.74h4.53V25h-6.72V13.8Z" fill="#fff"/></svg>