<svg width="160" height="38" fill="none" xmlns="http://www.w3.org/2000/svg"><g clip-path="url(#a)"><rect y=".72" width="160" height="37" rx="4" fill="#756257"/><path d="m37.98 20.02-3.12-5.5h2.64l1.73 3.23.38 1.14.37-1.14 1.81-3.23h2.38l-3.23 5.4 3.4 5.8h-2.61l-1.97-3.46-.43-1.18-.42 1.18-1.98 3.46h-2.39l3.44-5.7Zm6.92.1c0-1.87.4-3.3 1.23-4.3.82-1.02 2-1.52 3.52-1.52.8 0 1.5.14 2.1.41.6.28 1.09.67 1.48 1.19.4.5.7 1.12.88 1.84.2.71.3 1.5.3 2.38 0 1.87-.42 3.3-1.26 4.32-.82 1-1.99 1.5-3.5 1.5-.81 0-1.52-.13-2.11-.41-.6-.28-1.1-.67-1.5-1.19a5.34 5.34 0 0 1-.85-1.84c-.2-.71-.3-1.5-.3-2.38Zm2.3 0a8 8 0 0 0 .15 1.57c.1.47.24.87.43 1.21A2.05 2.05 0 0 0 49.65 24c.78 0 1.38-.3 1.8-.9.43-.62.65-1.6.65-2.97 0-.54-.05-1.05-.15-1.52a4.09 4.09 0 0 0-.41-1.23 2.03 2.03 0 0 0-1.89-1.12c-.78 0-1.38.31-1.8.94-.44.62-.65 1.6-.65 2.93Zm10.74-5.6v3.55c0 .64.12 1.12.36 1.44.26.31.68.47 1.25.47.4 0 .79-.05 1.14-.13.36-.1.65-.24.86-.42v-4.9h2.2v11.2h-2.2V21.2a5.28 5.28 0 0 1-2.77.64c-.44 0-.85-.05-1.23-.16-.36-.12-.68-.3-.96-.55a2.63 2.63 0 0 1-.62-.96c-.15-.39-.23-.86-.23-1.42v-4.24h2.2Zm11.47 4.94.32 1.46h.1l.26-1.5 1.68-4.9h2.25l-2.97 7.74c-.24.61-.47 1.14-.7 1.59-.2.45-.44.82-.7 1.12-.24.29-.52.5-.83.65-.3.14-.67.21-1.09.21-.35 0-.64-.02-.86-.08a2.16 2.16 0 0 1-.7-.3l.56-1.78c.18.1.34.16.5.18.14.02.3.03.47.03.5 0 .86-.4 1.06-1.18l-4.2-8.18h2.58l2.27 4.94Zm16.3 5.8c-.34.24-.78.42-1.31.52-.53.11-1.07.16-1.62.16-.67 0-1.31-.1-1.92-.3a4.23 4.23 0 0 1-1.58-1 5.14 5.14 0 0 1-1.1-1.82 8.07 8.07 0 0 1-.4-2.7c0-1.1.14-2.02.44-2.75.3-.75.7-1.35 1.18-1.8a4.3 4.3 0 0 1 1.64-.97c.6-.2 1.2-.3 1.79-.3.64 0 1.18.04 1.61.12.45.09.82.2 1.1.3l-.42 1.86c-.25-.11-.54-.2-.88-.25a7.8 7.8 0 0 0-1.22-.08c-.89 0-1.6.31-2.14.94-.54.63-.8 1.6-.8 2.93 0 .58.06 1.1.19 1.58.13.47.32.88.57 1.22.27.33.6.6.98.78.4.19.85.28 1.36.28.48 0 .89-.05 1.22-.15.33-.1.61-.22.86-.37l.45 1.8Zm3.54-6.18h1.5a5.9 5.9 0 0 1 1.34-3.54 4.09 4.09 0 0 1 3.18-1.24c.81 0 1.5.14 2.08.41.58.28 1.04.67 1.4 1.19.38.5.65 1.12.82 1.84.18.71.28 1.5.28 2.38 0 1.87-.39 3.3-1.16 4.32-.76 1-1.9 1.5-3.42 1.5-.7 0-1.33-.11-1.87-.35a3.83 3.83 0 0 1-1.36-.99 4.68 4.68 0 0 1-.88-1.55 8.23 8.23 0 0 1-.42-2.02h-1.49v4.7h-2.19v-11.2h2.2v4.55Zm3.73 1.04c0 .57.04 1.09.11 1.57.09.47.22.87.39 1.21.18.35.41.61.7.8.3.2.66.3 1.09.3.78 0 1.35-.31 1.71-.92.37-.6.56-1.6.56-2.96a9.7 9.7 0 0 0-.11-1.52 4.08 4.08 0 0 0-.35-1.23 1.87 1.87 0 0 0-1.8-1.12 1.9 1.9 0 0 0-1.74.94c-.37.62-.56 1.6-.56 2.93Zm17.97 7.6h-1.55l-.24-2h-7.2l-.24 2h-1.56v-3.95h1.19a11.05 11.05 0 0 0 .88-2.5c.17-.74.31-1.67.43-2.78.12-1.12.17-2.44.16-3.97h6.7v9.25h1.43v3.95Zm-3.62-3.95v-7.3h-2.48a29.4 29.4 0 0 1-.46 4.67 13 13 0 0 1-.72 2.63h3.66Zm10.38-.53h-3.44l-.85 2.48h-2.2l4.04-11.28h1.61l4.04 11.28h-2.3l-.9-2.48Zm-2.88-1.76h2.4l-.84-2.5-.33-1.76h-.08l-.34 1.78-.81 2.48Zm7.68-6.96h2.15v5.26l-.42 2.61h-1.31l-.42-2.6v-5.27Zm-.22 10.14c0-.37.12-.66.35-.88.24-.22.55-.33.93-.33.4 0 .73.11.96.33.23.22.35.51.35.88 0 .38-.11.68-.35.9-.23.22-.56.34-.96.34-.38 0-.7-.12-.93-.34a1.18 1.18 0 0 1-.35-.9Z" fill="#fff"/></g><defs><clipPath id="a"><path fill="#fff" transform="translate(0 .72)" d="M0 0h160v37.24H0z"/></clipPath></defs></svg>